<svg xmlns="http://www.w3.org/2000/svg" width="392" height="156" viewBox="0 0 392 156">
<rect width="100%" height="100%" fill="#fafafa" rx="8" ry="8"/>
<text x="30" y="18" font-family="Consolas, 'Courier New', monospace" font-size="14" font-weight="bold" fill="#222">class_body</text>
<line x1="30.0" y1="68.0" x2="54.0" y2="68.0" stroke="#555" stroke-width="1.5"/>
<polygon points="54,68 49,66 49,70" fill="#555"/>
<line x1="338.0" y1="68.0" x2="362.0" y2="68.0" stroke="#555" stroke-width="1.5"/>
<circle cx="30" cy="68" r="5" fill="#555"/>
<circle cx="362" cy="68" r="5" fill="#555" stroke="#555" stroke-width="2"/>
<circle cx="362" cy="68" r="3" fill="#fafafa"/>
<line x1="54.0" y1="68.0" x2="176.0" y2="68.0" stroke="#555" stroke-width="1.5"/>
<text x="196.0" y="72.0" text-anchor="middle" font-family="Consolas, 'Courier New', monospace" font-size="13" fill="#888">ε</text>
<line x1="176.0" y1="68.0" x2="216.0" y2="68.0" stroke="#555" stroke-width="1.5"/>
<line x1="216.0" y1="68.0" x2="314.0" y2="68.0" stroke="#555" stroke-width="1.5"/>
<line x1="54.0" y1="68.0" x2="54.0" y2="98.0" stroke="#555" stroke-width="1.5"/>
<path d="M 54.0 98.0 Q 54.0 110.0 66.0 110.0" fill="none" stroke="#555" stroke-width="1.5"/>
<line x1="66.0" y1="110.0" x2="78.0" y2="110.0" stroke="#555" stroke-width="1.5"/>
<rect x="78" y="96" width="116" height="28" fill="#ffffff" stroke="#444444" stroke-width="1.5"/>
<text x="136.0" y="114.0" text-anchor="middle" font-family="Consolas, 'Courier New', monospace" font-size="13" font-style="italic" fill="#222222">class_member</text>
<line x1="194.0" y1="110.0" x2="214.0" y2="110.0" stroke="#555" stroke-width="1.5"/>
<polygon points="214,110 209,108 209,112" fill="#555"/>
<rect x="214" y="96" width="100" height="28" fill="#ffffff" stroke="#444444" stroke-width="1.5"/>
<text x="264.0" y="114.0" text-anchor="middle" font-family="Consolas, 'Courier New', monospace" font-size="13" font-style="italic" fill="#222222">class_body</text>
<line x1="314.0" y1="110.0" x2="326.0" y2="110.0" stroke="#555" stroke-width="1.5"/>
<path d="M 326.0 110.0 Q 338.0 110.0 338.0 122.0" fill="none" stroke="#555" stroke-width="1.5"/>
<line x1="338.0" y1="68.0" x2="338.0" y2="122.0" stroke="#555" stroke-width="1.5"/>
<polygon points="218,68 213,66 213,70" fill="#555"/>
</svg>