<svg xmlns="http://www.w3.org/2000/svg" width="444" height="90" viewBox="0 0 444 90">
<rect width="100%" height="100%" fill="#fafafa" rx="8" ry="8"/>
<text x="30" y="18" font-family="Consolas, 'Courier New', monospace" font-size="14" font-weight="bold" fill="#222">class_decl</text>
<line x1="30.0" y1="56.0" x2="54.0" y2="56.0" stroke="#555" stroke-width="1.5"/>
<polygon points="54,56 49,54 49,58" fill="#555"/>
<line x1="390.0" y1="56.0" x2="414.0" y2="56.0" stroke="#555" stroke-width="1.5"/>
<circle cx="30" cy="56" r="5" fill="#555"/>
<circle cx="414" cy="56" r="5" fill="#555" stroke="#555" stroke-width="2"/>
<circle cx="414" cy="56" r="3" fill="#fafafa"/>
<rect x="54" y="42" width="60" height="28" rx="5" ry="5" fill="#ddeeff" stroke="#336699" stroke-width="1.5"/>
<text x="84.0" y="60.0" text-anchor="middle" font-family="Consolas, 'Courier New', monospace" font-size="13" fill="#003366">CLASS</text>
<line x1="114.0" y1="56.0" x2="134.0" y2="56.0" stroke="#555" stroke-width="1.5"/>
<polygon points="134,56 129,54 129,58" fill="#555"/>
<rect x="134" y="42" width="36" height="28" rx="5" ry="5" fill="#ddeeff" stroke="#336699" stroke-width="1.5"/>
<text x="152.0" y="60.0" text-anchor="middle" font-family="Consolas, 'Courier New', monospace" font-size="13" fill="#003366">ID</text>
<line x1="170.0" y1="56.0" x2="190.0" y2="56.0" stroke="#555" stroke-width="1.5"/>
<polygon points="190,56 185,54 185,58" fill="#555"/>
<rect x="190" y="42" width="30" height="28" rx="5" ry="5" fill="#ddeeff" stroke="#336699" stroke-width="1.5"/>
<text x="205.0" y="60.0" text-anchor="middle" font-family="Consolas, 'Courier New', monospace" font-size="13" fill="#003366">{</text>
<line x1="220.0" y1="56.0" x2="240.0" y2="56.0" stroke="#555" stroke-width="1.5"/>
<polygon points="240,56 235,54 235,58" fill="#555"/>
<rect x="240" y="42" width="100" height="28" fill="#ffffff" stroke="#444444" stroke-width="1.5"/>
<text x="290.0" y="60.0" text-anchor="middle" font-family="Consolas, 'Courier New', monospace" font-size="13" font-style="italic" fill="#222222">class_body</text>
<line x1="340.0" y1="56.0" x2="360.0" y2="56.0" stroke="#555" stroke-width="1.5"/>
<polygon points="360,56 355,54 355,58" fill="#555"/>
<rect x="360" y="42" width="30" height="28" rx="5" ry="5" fill="#ddeeff" stroke="#336699" stroke-width="1.5"/>
<text x="375.0" y="60.0" text-anchor="middle" font-family="Consolas, 'Courier New', monospace" font-size="13" fill="#003366">}</text>
</svg>