<svg xmlns="http://www.w3.org/2000/svg" width="320" height="156" viewBox="0 0 320 156">
<rect width="100%" height="100%" fill="#fafafa" rx="8" ry="8"/>
<text x="30" y="18" font-family="Consolas, 'Courier New', monospace" font-size="14" font-weight="bold" fill="#222">decl_list</text>
<line x1="30.0" y1="68.0" x2="54.0" y2="68.0" stroke="#555" stroke-width="1.5"/>
<polygon points="54,68 49,66 49,70" fill="#555"/>
<line x1="266.0" y1="68.0" x2="290.0" y2="68.0" stroke="#555" stroke-width="1.5"/>
<circle cx="30" cy="68" r="5" fill="#555"/>
<circle cx="290" cy="68" r="5" fill="#555" stroke="#555" stroke-width="2"/>
<circle cx="290" cy="68" r="3" fill="#fafafa"/>
<line x1="54.0" y1="68.0" x2="140.0" y2="68.0" stroke="#555" stroke-width="1.5"/>
<text x="160.0" y="72.0" text-anchor="middle" font-family="Consolas, 'Courier New', monospace" font-size="13" fill="#888">ε</text>
<line x1="140.0" y1="68.0" x2="180.0" y2="68.0" stroke="#555" stroke-width="1.5"/>
<line x1="180.0" y1="68.0" x2="242.0" y2="68.0" stroke="#555" stroke-width="1.5"/>
<line x1="54.0" y1="68.0" x2="54.0" y2="98.0" stroke="#555" stroke-width="1.5"/>
<path d="M 54.0 98.0 Q 54.0 110.0 66.0 110.0" fill="none" stroke="#555" stroke-width="1.5"/>
<line x1="66.0" y1="110.0" x2="78.0" y2="110.0" stroke="#555" stroke-width="1.5"/>
<rect x="78" y="96" width="52" height="28" fill="#ffffff" stroke="#444444" stroke-width="1.5"/>
<text x="104.0" y="114.0" text-anchor="middle" font-family="Consolas, 'Courier New', monospace" font-size="13" font-style="italic" fill="#222222">decl</text>
<line x1="130.0" y1="110.0" x2="150.0" y2="110.0" stroke="#555" stroke-width="1.5"/>
<polygon points="150,110 145,108 145,112" fill="#555"/>
<rect x="150" y="96" width="92" height="28" fill="#ffffff" stroke="#444444" stroke-width="1.5"/>
<text x="196.0" y="114.0" text-anchor="middle" font-family="Consolas, 'Courier New', monospace" font-size="13" font-style="italic" fill="#222222">decl_list</text>
<line x1="242.0" y1="110.0" x2="254.0" y2="110.0" stroke="#555" stroke-width="1.5"/>
<path d="M 254.0 110.0 Q 266.0 110.0 266.0 122.0" fill="none" stroke="#555" stroke-width="1.5"/>
<line x1="266.0" y1="68.0" x2="266.0" y2="122.0" stroke="#555" stroke-width="1.5"/>
<polygon points="182,68 177,66 177,70" fill="#555"/>
</svg>