<svg xmlns="http://www.w3.org/2000/svg" width="280" height="282" viewBox="0 0 280 282">
<rect width="100%" height="100%" fill="#fafafa" rx="8" ry="8"/>
<text x="30" y="18" font-family="Consolas, 'Courier New', monospace" font-size="14" font-weight="bold" fill="#222">expr8</text>
<line x1="30.0" y1="68.0" x2="54.0" y2="68.0" stroke="#555" stroke-width="1.5"/>
<polygon points="54,68 49,66 49,70" fill="#555"/>
<line x1="226.0" y1="68.0" x2="250.0" y2="68.0" stroke="#555" stroke-width="1.5"/>
<circle cx="30" cy="68" r="5" fill="#555"/>
<circle cx="250" cy="68" r="5" fill="#555" stroke="#555" stroke-width="2"/>
<circle cx="250" cy="68" r="3" fill="#fafafa"/>
<line x1="54.0" y1="68.0" x2="78.0" y2="68.0" stroke="#555" stroke-width="1.5"/>
<rect x="78" y="54" width="44" height="28" rx="5" ry="5" fill="#ddeeff" stroke="#336699" stroke-width="1.5"/>
<text x="100.0" y="72.0" text-anchor="middle" font-family="Consolas, 'Courier New', monospace" font-size="13" fill="#003366">INC</text>
<line x1="122.0" y1="68.0" x2="142.0" y2="68.0" stroke="#555" stroke-width="1.5"/>
<polygon points="142,68 137,66 137,70" fill="#555"/>
<rect x="142" y="54" width="60" height="28" fill="#ffffff" stroke="#444444" stroke-width="1.5"/>
<text x="172.0" y="72.0" text-anchor="middle" font-family="Consolas, 'Courier New', monospace" font-size="13" font-style="italic" fill="#222222">expr8</text>
<line x1="54.0" y1="68.0" x2="54.0" y2="98.0" stroke="#555" stroke-width="1.5"/>
<path d="M 54.0 98.0 Q 54.0 110.0 66.0 110.0" fill="none" stroke="#555" stroke-width="1.5"/>
<line x1="66.0" y1="110.0" x2="78.0" y2="110.0" stroke="#555" stroke-width="1.5"/>
<rect x="78" y="96" width="44" height="28" rx="5" ry="5" fill="#ddeeff" stroke="#336699" stroke-width="1.5"/>
<text x="100.0" y="114.0" text-anchor="middle" font-family="Consolas, 'Courier New', monospace" font-size="13" fill="#003366">DEC</text>
<line x1="122.0" y1="110.0" x2="142.0" y2="110.0" stroke="#555" stroke-width="1.5"/>
<polygon points="142,110 137,108 137,112" fill="#555"/>
<rect x="142" y="96" width="60" height="28" fill="#ffffff" stroke="#444444" stroke-width="1.5"/>
<text x="172.0" y="114.0" text-anchor="middle" font-family="Consolas, 'Courier New', monospace" font-size="13" font-style="italic" fill="#222222">expr8</text>
<line x1="202.0" y1="110.0" x2="214.0" y2="110.0" stroke="#555" stroke-width="1.5"/>
<path d="M 214.0 110.0 Q 226.0 110.0 226.0 122.0" fill="none" stroke="#555" stroke-width="1.5"/>
<line x1="226.0" y1="68.0" x2="226.0" y2="122.0" stroke="#555" stroke-width="1.5"/>
<line x1="54.0" y1="68.0" x2="54.0" y2="140.0" stroke="#555" stroke-width="1.5"/>
<path d="M 54.0 140.0 Q 54.0 152.0 66.0 152.0" fill="none" stroke="#555" stroke-width="1.5"/>
<line x1="66.0" y1="152.0" x2="85.0" y2="152.0" stroke="#555" stroke-width="1.5"/>
<rect x="85" y="138" width="30" height="28" rx="5" ry="5" fill="#ddeeff" stroke="#336699" stroke-width="1.5"/>
<text x="100.0" y="156.0" text-anchor="middle" font-family="Consolas, 'Courier New', monospace" font-size="13" fill="#003366">-</text>
<line x1="115.0" y1="152.0" x2="135.0" y2="152.0" stroke="#555" stroke-width="1.5"/>
<polygon points="135,152 130,150 130,154" fill="#555"/>
<rect x="135" y="138" width="60" height="28" fill="#ffffff" stroke="#444444" stroke-width="1.5"/>
<text x="165.0" y="156.0" text-anchor="middle" font-family="Consolas, 'Courier New', monospace" font-size="13" font-style="italic" fill="#222222">expr8</text>
<line x1="195.0" y1="152.0" x2="214.0" y2="152.0" stroke="#555" stroke-width="1.5"/>
<path d="M 214.0 152.0 Q 226.0 152.0 226.0 164.0" fill="none" stroke="#555" stroke-width="1.5"/>
<line x1="226.0" y1="68.0" x2="226.0" y2="164.0" stroke="#555" stroke-width="1.5"/>
<line x1="54.0" y1="68.0" x2="54.0" y2="182.0" stroke="#555" stroke-width="1.5"/>
<path d="M 54.0 182.0 Q 54.0 194.0 66.0 194.0" fill="none" stroke="#555" stroke-width="1.5"/>
<line x1="66.0" y1="194.0" x2="78.0" y2="194.0" stroke="#555" stroke-width="1.5"/>
<rect x="78" y="180" width="44" height="28" rx="5" ry="5" fill="#ddeeff" stroke="#336699" stroke-width="1.5"/>
<text x="100.0" y="198.0" text-anchor="middle" font-family="Consolas, 'Courier New', monospace" font-size="13" fill="#003366">NOT</text>
<line x1="122.0" y1="194.0" x2="142.0" y2="194.0" stroke="#555" stroke-width="1.5"/>
<polygon points="142,194 137,192 137,196" fill="#555"/>
<rect x="142" y="180" width="60" height="28" fill="#ffffff" stroke="#444444" stroke-width="1.5"/>
<text x="172.0" y="198.0" text-anchor="middle" font-family="Consolas, 'Courier New', monospace" font-size="13" font-style="italic" fill="#222222">expr8</text>
<line x1="202.0" y1="194.0" x2="214.0" y2="194.0" stroke="#555" stroke-width="1.5"/>
<path d="M 214.0 194.0 Q 226.0 194.0 226.0 206.0" fill="none" stroke="#555" stroke-width="1.5"/>
<line x1="226.0" y1="68.0" x2="226.0" y2="206.0" stroke="#555" stroke-width="1.5"/>
<line x1="54.0" y1="68.0" x2="54.0" y2="224.0" stroke="#555" stroke-width="1.5"/>
<path d="M 54.0 224.0 Q 54.0 236.0 66.0 236.0" fill="none" stroke="#555" stroke-width="1.5"/>
<line x1="66.0" y1="236.0" x2="110.0" y2="236.0" stroke="#555" stroke-width="1.5"/>
<rect x="110" y="222" width="60" height="28" fill="#ffffff" stroke="#444444" stroke-width="1.5"/>
<text x="140.0" y="240.0" text-anchor="middle" font-family="Consolas, 'Courier New', monospace" font-size="13" font-style="italic" fill="#222222">expr9</text>
<line x1="170.0" y1="236.0" x2="214.0" y2="236.0" stroke="#555" stroke-width="1.5"/>
<path d="M 214.0 236.0 Q 226.0 236.0 226.0 248.0" fill="none" stroke="#555" stroke-width="1.5"/>
<line x1="226.0" y1="68.0" x2="226.0" y2="248.0" stroke="#555" stroke-width="1.5"/>
<polygon points="204,68 199,66 199,70" fill="#555"/>
</svg>