<svg xmlns="http://www.w3.org/2000/svg" width="500" height="156" viewBox="0 0 500 156">
<rect width="100%" height="100%" fill="#fafafa" rx="8" ry="8"/>
<text x="30" y="18" font-family="Consolas, 'Courier New', monospace" font-size="14" font-weight="bold" fill="#222">expr_cond</text>
<line x1="30.0" y1="68.0" x2="54.0" y2="68.0" stroke="#555" stroke-width="1.5"/>
<polygon points="54,68 49,66 49,70" fill="#555"/>
<line x1="446.0" y1="68.0" x2="470.0" y2="68.0" stroke="#555" stroke-width="1.5"/>
<circle cx="30" cy="68" r="5" fill="#555"/>
<circle cx="470" cy="68" r="5" fill="#555" stroke="#555" stroke-width="2"/>
<circle cx="470" cy="68" r="3" fill="#fafafa"/>
<line x1="54.0" y1="68.0" x2="78.0" y2="68.0" stroke="#555" stroke-width="1.5"/>
<rect x="78" y="54" width="60" height="28" fill="#ffffff" stroke="#444444" stroke-width="1.5"/>
<text x="108.0" y="72.0" text-anchor="middle" font-family="Consolas, 'Courier New', monospace" font-size="13" font-style="italic" fill="#222222">expr1</text>
<line x1="138.0" y1="68.0" x2="158.0" y2="68.0" stroke="#555" stroke-width="1.5"/>
<polygon points="158,68 153,66 153,70" fill="#555"/>
<rect x="158" y="54" width="30" height="28" rx="5" ry="5" fill="#ddeeff" stroke="#336699" stroke-width="1.5"/>
<text x="173.0" y="72.0" text-anchor="middle" font-family="Consolas, 'Courier New', monospace" font-size="13" fill="#003366">?</text>
<line x1="188.0" y1="68.0" x2="208.0" y2="68.0" stroke="#555" stroke-width="1.5"/>
<polygon points="208,68 203,66 203,70" fill="#555"/>
<rect x="208" y="54" width="52" height="28" fill="#ffffff" stroke="#444444" stroke-width="1.5"/>
<text x="234.0" y="72.0" text-anchor="middle" font-family="Consolas, 'Courier New', monospace" font-size="13" font-style="italic" fill="#222222">expr</text>
<line x1="260.0" y1="68.0" x2="280.0" y2="68.0" stroke="#555" stroke-width="1.5"/>
<polygon points="280,68 275,66 275,70" fill="#555"/>
<rect x="280" y="54" width="30" height="28" rx="5" ry="5" fill="#ddeeff" stroke="#336699" stroke-width="1.5"/>
<text x="295.0" y="72.0" text-anchor="middle" font-family="Consolas, 'Courier New', monospace" font-size="13" fill="#003366">:</text>
<line x1="310.0" y1="68.0" x2="330.0" y2="68.0" stroke="#555" stroke-width="1.5"/>
<polygon points="330,68 325,66 325,70" fill="#555"/>
<rect x="330" y="54" width="92" height="28" fill="#ffffff" stroke="#444444" stroke-width="1.5"/>
<text x="376.0" y="72.0" text-anchor="middle" font-family="Consolas, 'Courier New', monospace" font-size="13" font-style="italic" fill="#222222">expr_cond</text>
<line x1="54.0" y1="68.0" x2="54.0" y2="98.0" stroke="#555" stroke-width="1.5"/>
<path d="M 54.0 98.0 Q 54.0 110.0 66.0 110.0" fill="none" stroke="#555" stroke-width="1.5"/>
<line x1="66.0" y1="110.0" x2="220.0" y2="110.0" stroke="#555" stroke-width="1.5"/>
<rect x="220" y="96" width="60" height="28" fill="#ffffff" stroke="#444444" stroke-width="1.5"/>
<text x="250.0" y="114.0" text-anchor="middle" font-family="Consolas, 'Courier New', monospace" font-size="13" font-style="italic" fill="#222222">expr1</text>
<line x1="280.0" y1="110.0" x2="434.0" y2="110.0" stroke="#555" stroke-width="1.5"/>
<path d="M 434.0 110.0 Q 446.0 110.0 446.0 122.0" fill="none" stroke="#555" stroke-width="1.5"/>
<line x1="446.0" y1="68.0" x2="446.0" y2="122.0" stroke="#555" stroke-width="1.5"/>
<polygon points="424,68 419,66 419,70" fill="#555"/>
</svg>