<svg xmlns="http://www.w3.org/2000/svg" width="360" height="156" viewBox="0 0 360 156">
<rect width="100%" height="100%" fill="#fafafa" rx="8" ry="8"/>
<text x="30" y="18" font-family="Consolas, 'Courier New', monospace" font-size="14" font-weight="bold" fill="#222">expr2</text>
<line x1="30.0" y1="68.0" x2="54.0" y2="68.0" stroke="#555" stroke-width="1.5"/>
<polygon points="54,68 49,66 49,70" fill="#555"/>
<line x1="306.0" y1="68.0" x2="330.0" y2="68.0" stroke="#555" stroke-width="1.5"/>
<circle cx="30" cy="68" r="5" fill="#555"/>
<circle cx="330" cy="68" r="5" fill="#555" stroke="#555" stroke-width="2"/>
<circle cx="330" cy="68" r="3" fill="#fafafa"/>
<line x1="54.0" y1="68.0" x2="78.0" y2="68.0" stroke="#555" stroke-width="1.5"/>
<rect x="78" y="54" width="60" height="28" fill="#ffffff" stroke="#444444" stroke-width="1.5"/>
<text x="108.0" y="72.0" text-anchor="middle" font-family="Consolas, 'Courier New', monospace" font-size="13" font-style="italic" fill="#222222">expr2</text>
<line x1="138.0" y1="68.0" x2="158.0" y2="68.0" stroke="#555" stroke-width="1.5"/>
<polygon points="158,68 153,66 153,70" fill="#555"/>
<rect x="158" y="54" width="44" height="28" rx="5" ry="5" fill="#ddeeff" stroke="#336699" stroke-width="1.5"/>
<text x="180.0" y="72.0" text-anchor="middle" font-family="Consolas, 'Courier New', monospace" font-size="13" fill="#003366">LOR</text>
<line x1="202.0" y1="68.0" x2="222.0" y2="68.0" stroke="#555" stroke-width="1.5"/>
<polygon points="222,68 217,66 217,70" fill="#555"/>
<rect x="222" y="54" width="60" height="28" fill="#ffffff" stroke="#444444" stroke-width="1.5"/>
<text x="252.0" y="72.0" text-anchor="middle" font-family="Consolas, 'Courier New', monospace" font-size="13" font-style="italic" fill="#222222">expr3</text>
<line x1="54.0" y1="68.0" x2="54.0" y2="98.0" stroke="#555" stroke-width="1.5"/>
<path d="M 54.0 98.0 Q 54.0 110.0 66.0 110.0" fill="none" stroke="#555" stroke-width="1.5"/>
<line x1="66.0" y1="110.0" x2="150.0" y2="110.0" stroke="#555" stroke-width="1.5"/>
<rect x="150" y="96" width="60" height="28" fill="#ffffff" stroke="#444444" stroke-width="1.5"/>
<text x="180.0" y="114.0" text-anchor="middle" font-family="Consolas, 'Courier New', monospace" font-size="13" font-style="italic" fill="#222222">expr3</text>
<line x1="210.0" y1="110.0" x2="294.0" y2="110.0" stroke="#555" stroke-width="1.5"/>
<path d="M 294.0 110.0 Q 306.0 110.0 306.0 122.0" fill="none" stroke="#555" stroke-width="1.5"/>
<line x1="306.0" y1="68.0" x2="306.0" y2="122.0" stroke="#555" stroke-width="1.5"/>
<polygon points="284,68 279,66 279,70" fill="#555"/>
</svg>