<svg xmlns="http://www.w3.org/2000/svg" width="370" height="156" viewBox="0 0 370 156">
<rect width="100%" height="100%" fill="#fafafa" rx="8" ry="8"/>
<text x="30" y="18" font-family="Consolas, 'Courier New', monospace" font-size="14" font-weight="bold" fill="#222">expr_list</text>
<line x1="30.0" y1="68.0" x2="54.0" y2="68.0" stroke="#555" stroke-width="1.5"/>
<polygon points="54,68 49,66 49,70" fill="#555"/>
<line x1="316.0" y1="68.0" x2="340.0" y2="68.0" stroke="#555" stroke-width="1.5"/>
<circle cx="30" cy="68" r="5" fill="#555"/>
<circle cx="340" cy="68" r="5" fill="#555" stroke="#555" stroke-width="2"/>
<circle cx="340" cy="68" r="3" fill="#fafafa"/>
<line x1="54.0" y1="68.0" x2="159.0" y2="68.0" stroke="#555" stroke-width="1.5"/>
<rect x="159" y="54" width="52" height="28" fill="#ffffff" stroke="#444444" stroke-width="1.5"/>
<text x="185.0" y="72.0" text-anchor="middle" font-family="Consolas, 'Courier New', monospace" font-size="13" font-style="italic" fill="#222222">expr</text>
<line x1="211.0" y1="68.0" x2="292.0" y2="68.0" stroke="#555" stroke-width="1.5"/>
<line x1="54.0" y1="68.0" x2="54.0" y2="98.0" stroke="#555" stroke-width="1.5"/>
<path d="M 54.0 98.0 Q 54.0 110.0 66.0 110.0" fill="none" stroke="#555" stroke-width="1.5"/>
<line x1="66.0" y1="110.0" x2="78.0" y2="110.0" stroke="#555" stroke-width="1.5"/>
<rect x="78" y="96" width="52" height="28" fill="#ffffff" stroke="#444444" stroke-width="1.5"/>
<text x="104.0" y="114.0" text-anchor="middle" font-family="Consolas, 'Courier New', monospace" font-size="13" font-style="italic" fill="#222222">expr</text>
<line x1="130.0" y1="110.0" x2="150.0" y2="110.0" stroke="#555" stroke-width="1.5"/>
<polygon points="150,110 145,108 145,112" fill="#555"/>
<rect x="150" y="96" width="30" height="28" rx="5" ry="5" fill="#ddeeff" stroke="#336699" stroke-width="1.5"/>
<text x="165.0" y="114.0" text-anchor="middle" font-family="Consolas, 'Courier New', monospace" font-size="13" fill="#003366">,</text>
<line x1="180.0" y1="110.0" x2="200.0" y2="110.0" stroke="#555" stroke-width="1.5"/>
<polygon points="200,110 195,108 195,112" fill="#555"/>
<rect x="200" y="96" width="92" height="28" fill="#ffffff" stroke="#444444" stroke-width="1.5"/>
<text x="246.0" y="114.0" text-anchor="middle" font-family="Consolas, 'Courier New', monospace" font-size="13" font-style="italic" fill="#222222">expr_list</text>
<line x1="292.0" y1="110.0" x2="304.0" y2="110.0" stroke="#555" stroke-width="1.5"/>
<path d="M 304.0 110.0 Q 316.0 110.0 316.0 122.0" fill="none" stroke="#555" stroke-width="1.5"/>
<line x1="316.0" y1="68.0" x2="316.0" y2="122.0" stroke="#555" stroke-width="1.5"/>
<polygon points="213,68 208,66 208,70" fill="#555"/>
</svg>