<svg xmlns="http://www.w3.org/2000/svg" width="376" height="324" viewBox="0 0 376 324">
<rect width="100%" height="100%" fill="#fafafa" rx="8" ry="8"/>
<text x="30" y="18" font-family="Consolas, 'Courier New', monospace" font-size="14" font-weight="bold" fill="#222">expr1</text>
<line x1="30.0" y1="68.0" x2="54.0" y2="68.0" stroke="#555" stroke-width="1.5"/>
<polygon points="54,68 49,66 49,70" fill="#555"/>
<line x1="322.0" y1="68.0" x2="346.0" y2="68.0" stroke="#555" stroke-width="1.5"/>
<circle cx="30" cy="68" r="5" fill="#555"/>
<circle cx="346" cy="68" r="5" fill="#555" stroke="#555" stroke-width="2"/>
<circle cx="346" cy="68" r="3" fill="#fafafa"/>
<line x1="54.0" y1="68.0" x2="81.0" y2="68.0" stroke="#555" stroke-width="1.5"/>
<rect x="81" y="54" width="84" height="28" fill="#ffffff" stroke="#444444" stroke-width="1.5"/>
<text x="123.0" y="72.0" text-anchor="middle" font-family="Consolas, 'Courier New', monospace" font-size="13" font-style="italic" fill="#222222">lval_obj</text>
<line x1="165.0" y1="68.0" x2="185.0" y2="68.0" stroke="#555" stroke-width="1.5"/>
<polygon points="185,68 180,66 180,70" fill="#555"/>
<rect x="185" y="54" width="30" height="28" rx="5" ry="5" fill="#ddeeff" stroke="#336699" stroke-width="1.5"/>
<text x="200.0" y="72.0" text-anchor="middle" font-family="Consolas, 'Courier New', monospace" font-size="13" fill="#003366">=</text>
<line x1="215.0" y1="68.0" x2="235.0" y2="68.0" stroke="#555" stroke-width="1.5"/>
<polygon points="235,68 230,66 230,70" fill="#555"/>
<rect x="235" y="54" width="60" height="28" fill="#ffffff" stroke="#444444" stroke-width="1.5"/>
<text x="265.0" y="72.0" text-anchor="middle" font-family="Consolas, 'Courier New', monospace" font-size="13" font-style="italic" fill="#222222">expr1</text>
<line x1="295.0" y1="68.0" x2="298.0" y2="68.0" stroke="#555" stroke-width="1.5"/>
<line x1="54.0" y1="68.0" x2="54.0" y2="98.0" stroke="#555" stroke-width="1.5"/>
<path d="M 54.0 98.0 Q 54.0 110.0 66.0 110.0" fill="none" stroke="#555" stroke-width="1.5"/>
<line x1="66.0" y1="110.0" x2="78.0" y2="110.0" stroke="#555" stroke-width="1.5"/>
<rect x="78" y="96" width="84" height="28" fill="#ffffff" stroke="#444444" stroke-width="1.5"/>
<text x="120.0" y="114.0" text-anchor="middle" font-family="Consolas, 'Courier New', monospace" font-size="13" font-style="italic" fill="#222222">lval_obj</text>
<line x1="162.0" y1="110.0" x2="182.0" y2="110.0" stroke="#555" stroke-width="1.5"/>
<polygon points="182,110 177,108 177,112" fill="#555"/>
<rect x="182" y="96" width="36" height="28" rx="5" ry="5" fill="#ddeeff" stroke="#336699" stroke-width="1.5"/>
<text x="200.0" y="114.0" text-anchor="middle" font-family="Consolas, 'Courier New', monospace" font-size="13" fill="#003366">+=</text>
<line x1="218.0" y1="110.0" x2="238.0" y2="110.0" stroke="#555" stroke-width="1.5"/>
<polygon points="238,110 233,108 233,112" fill="#555"/>
<rect x="238" y="96" width="60" height="28" fill="#ffffff" stroke="#444444" stroke-width="1.5"/>
<text x="268.0" y="114.0" text-anchor="middle" font-family="Consolas, 'Courier New', monospace" font-size="13" font-style="italic" fill="#222222">expr1</text>
<line x1="298.0" y1="110.0" x2="310.0" y2="110.0" stroke="#555" stroke-width="1.5"/>
<path d="M 310.0 110.0 Q 322.0 110.0 322.0 122.0" fill="none" stroke="#555" stroke-width="1.5"/>
<line x1="322.0" y1="68.0" x2="322.0" y2="122.0" stroke="#555" stroke-width="1.5"/>
<line x1="54.0" y1="68.0" x2="54.0" y2="140.0" stroke="#555" stroke-width="1.5"/>
<path d="M 54.0 140.0 Q 54.0 152.0 66.0 152.0" fill="none" stroke="#555" stroke-width="1.5"/>
<line x1="66.0" y1="152.0" x2="78.0" y2="152.0" stroke="#555" stroke-width="1.5"/>
<rect x="78" y="138" width="84" height="28" fill="#ffffff" stroke="#444444" stroke-width="1.5"/>
<text x="120.0" y="156.0" text-anchor="middle" font-family="Consolas, 'Courier New', monospace" font-size="13" font-style="italic" fill="#222222">lval_obj</text>
<line x1="162.0" y1="152.0" x2="182.0" y2="152.0" stroke="#555" stroke-width="1.5"/>
<polygon points="182,152 177,150 177,154" fill="#555"/>
<rect x="182" y="138" width="36" height="28" rx="5" ry="5" fill="#ddeeff" stroke="#336699" stroke-width="1.5"/>
<text x="200.0" y="156.0" text-anchor="middle" font-family="Consolas, 'Courier New', monospace" font-size="13" fill="#003366">-=</text>
<line x1="218.0" y1="152.0" x2="238.0" y2="152.0" stroke="#555" stroke-width="1.5"/>
<polygon points="238,152 233,150 233,154" fill="#555"/>
<rect x="238" y="138" width="60" height="28" fill="#ffffff" stroke="#444444" stroke-width="1.5"/>
<text x="268.0" y="156.0" text-anchor="middle" font-family="Consolas, 'Courier New', monospace" font-size="13" font-style="italic" fill="#222222">expr1</text>
<line x1="298.0" y1="152.0" x2="310.0" y2="152.0" stroke="#555" stroke-width="1.5"/>
<path d="M 310.0 152.0 Q 322.0 152.0 322.0 164.0" fill="none" stroke="#555" stroke-width="1.5"/>
<line x1="322.0" y1="68.0" x2="322.0" y2="164.0" stroke="#555" stroke-width="1.5"/>
<line x1="54.0" y1="68.0" x2="54.0" y2="182.0" stroke="#555" stroke-width="1.5"/>
<path d="M 54.0 182.0 Q 54.0 194.0 66.0 194.0" fill="none" stroke="#555" stroke-width="1.5"/>
<line x1="66.0" y1="194.0" x2="78.0" y2="194.0" stroke="#555" stroke-width="1.5"/>
<rect x="78" y="180" width="84" height="28" fill="#ffffff" stroke="#444444" stroke-width="1.5"/>
<text x="120.0" y="198.0" text-anchor="middle" font-family="Consolas, 'Courier New', monospace" font-size="13" font-style="italic" fill="#222222">lval_obj</text>
<line x1="162.0" y1="194.0" x2="182.0" y2="194.0" stroke="#555" stroke-width="1.5"/>
<polygon points="182,194 177,192 177,196" fill="#555"/>
<rect x="182" y="180" width="36" height="28" rx="5" ry="5" fill="#ddeeff" stroke="#336699" stroke-width="1.5"/>
<text x="200.0" y="198.0" text-anchor="middle" font-family="Consolas, 'Courier New', monospace" font-size="13" fill="#003366">*=</text>
<line x1="218.0" y1="194.0" x2="238.0" y2="194.0" stroke="#555" stroke-width="1.5"/>
<polygon points="238,194 233,192 233,196" fill="#555"/>
<rect x="238" y="180" width="60" height="28" fill="#ffffff" stroke="#444444" stroke-width="1.5"/>
<text x="268.0" y="198.0" text-anchor="middle" font-family="Consolas, 'Courier New', monospace" font-size="13" font-style="italic" fill="#222222">expr1</text>
<line x1="298.0" y1="194.0" x2="310.0" y2="194.0" stroke="#555" stroke-width="1.5"/>
<path d="M 310.0 194.0 Q 322.0 194.0 322.0 206.0" fill="none" stroke="#555" stroke-width="1.5"/>
<line x1="322.0" y1="68.0" x2="322.0" y2="206.0" stroke="#555" stroke-width="1.5"/>
<line x1="54.0" y1="68.0" x2="54.0" y2="224.0" stroke="#555" stroke-width="1.5"/>
<path d="M 54.0 224.0 Q 54.0 236.0 66.0 236.0" fill="none" stroke="#555" stroke-width="1.5"/>
<line x1="66.0" y1="236.0" x2="78.0" y2="236.0" stroke="#555" stroke-width="1.5"/>
<rect x="78" y="222" width="84" height="28" fill="#ffffff" stroke="#444444" stroke-width="1.5"/>
<text x="120.0" y="240.0" text-anchor="middle" font-family="Consolas, 'Courier New', monospace" font-size="13" font-style="italic" fill="#222222">lval_obj</text>
<line x1="162.0" y1="236.0" x2="182.0" y2="236.0" stroke="#555" stroke-width="1.5"/>
<polygon points="182,236 177,234 177,238" fill="#555"/>
<rect x="182" y="222" width="36" height="28" rx="5" ry="5" fill="#ddeeff" stroke="#336699" stroke-width="1.5"/>
<text x="200.0" y="240.0" text-anchor="middle" font-family="Consolas, 'Courier New', monospace" font-size="13" fill="#003366">/=</text>
<line x1="218.0" y1="236.0" x2="238.0" y2="236.0" stroke="#555" stroke-width="1.5"/>
<polygon points="238,236 233,234 233,238" fill="#555"/>
<rect x="238" y="222" width="60" height="28" fill="#ffffff" stroke="#444444" stroke-width="1.5"/>
<text x="268.0" y="240.0" text-anchor="middle" font-family="Consolas, 'Courier New', monospace" font-size="13" font-style="italic" fill="#222222">expr1</text>
<line x1="298.0" y1="236.0" x2="310.0" y2="236.0" stroke="#555" stroke-width="1.5"/>
<path d="M 310.0 236.0 Q 322.0 236.0 322.0 248.0" fill="none" stroke="#555" stroke-width="1.5"/>
<line x1="322.0" y1="68.0" x2="322.0" y2="248.0" stroke="#555" stroke-width="1.5"/>
<line x1="54.0" y1="68.0" x2="54.0" y2="266.0" stroke="#555" stroke-width="1.5"/>
<path d="M 54.0 266.0 Q 54.0 278.0 66.0 278.0" fill="none" stroke="#555" stroke-width="1.5"/>
<line x1="66.0" y1="278.0" x2="158.0" y2="278.0" stroke="#555" stroke-width="1.5"/>
<rect x="158" y="264" width="60" height="28" fill="#ffffff" stroke="#444444" stroke-width="1.5"/>
<text x="188.0" y="282.0" text-anchor="middle" font-family="Consolas, 'Courier New', monospace" font-size="13" font-style="italic" fill="#222222">expr2</text>
<line x1="218.0" y1="278.0" x2="310.0" y2="278.0" stroke="#555" stroke-width="1.5"/>
<path d="M 310.0 278.0 Q 322.0 278.0 322.0 290.0" fill="none" stroke="#555" stroke-width="1.5"/>
<line x1="322.0" y1="68.0" x2="322.0" y2="290.0" stroke="#555" stroke-width="1.5"/>
<polygon points="297,68 292,66 292,70" fill="#555"/>
</svg>