<svg xmlns="http://www.w3.org/2000/svg" width="566" height="282" viewBox="0 0 566 282">
<rect width="100%" height="100%" fill="#fafafa" rx="8" ry="8"/>
<text x="30" y="18" font-family="Consolas, 'Courier New', monospace" font-size="14" font-weight="bold" fill="#222">expr9</text>
<line x1="30.0" y1="68.0" x2="54.0" y2="68.0" stroke="#555" stroke-width="1.5"/>
<polygon points="54,68 49,66 49,70" fill="#555"/>
<line x1="512.0" y1="68.0" x2="536.0" y2="68.0" stroke="#555" stroke-width="1.5"/>
<circle cx="30" cy="68" r="5" fill="#555"/>
<circle cx="536" cy="68" r="5" fill="#555" stroke="#555" stroke-width="2"/>
<circle cx="536" cy="68" r="3" fill="#fafafa"/>
<line x1="54.0" y1="68.0" x2="221.0" y2="68.0" stroke="#555" stroke-width="1.5"/>
<rect x="221" y="54" width="60" height="28" fill="#ffffff" stroke="#444444" stroke-width="1.5"/>
<text x="251.0" y="72.0" text-anchor="middle" font-family="Consolas, 'Courier New', monospace" font-size="13" font-style="italic" fill="#222222">expr9</text>
<line x1="281.0" y1="68.0" x2="301.0" y2="68.0" stroke="#555" stroke-width="1.5"/>
<polygon points="301,68 296,66 296,70" fill="#555"/>
<rect x="301" y="54" width="44" height="28" rx="5" ry="5" fill="#ddeeff" stroke="#336699" stroke-width="1.5"/>
<text x="323.0" y="72.0" text-anchor="middle" font-family="Consolas, 'Courier New', monospace" font-size="13" fill="#003366">INC</text>
<line x1="345.0" y1="68.0" x2="488.0" y2="68.0" stroke="#555" stroke-width="1.5"/>
<line x1="54.0" y1="68.0" x2="54.0" y2="98.0" stroke="#555" stroke-width="1.5"/>
<path d="M 54.0 98.0 Q 54.0 110.0 66.0 110.0" fill="none" stroke="#555" stroke-width="1.5"/>
<line x1="66.0" y1="110.0" x2="221.0" y2="110.0" stroke="#555" stroke-width="1.5"/>
<rect x="221" y="96" width="60" height="28" fill="#ffffff" stroke="#444444" stroke-width="1.5"/>
<text x="251.0" y="114.0" text-anchor="middle" font-family="Consolas, 'Courier New', monospace" font-size="13" font-style="italic" fill="#222222">expr9</text>
<line x1="281.0" y1="110.0" x2="301.0" y2="110.0" stroke="#555" stroke-width="1.5"/>
<polygon points="301,110 296,108 296,112" fill="#555"/>
<rect x="301" y="96" width="44" height="28" rx="5" ry="5" fill="#ddeeff" stroke="#336699" stroke-width="1.5"/>
<text x="323.0" y="114.0" text-anchor="middle" font-family="Consolas, 'Courier New', monospace" font-size="13" fill="#003366">DEC</text>
<line x1="345.0" y1="110.0" x2="500.0" y2="110.0" stroke="#555" stroke-width="1.5"/>
<path d="M 500.0 110.0 Q 512.0 110.0 512.0 122.0" fill="none" stroke="#555" stroke-width="1.5"/>
<line x1="512.0" y1="68.0" x2="512.0" y2="122.0" stroke="#555" stroke-width="1.5"/>
<line x1="54.0" y1="68.0" x2="54.0" y2="140.0" stroke="#555" stroke-width="1.5"/>
<path d="M 54.0 140.0 Q 54.0 152.0 66.0 152.0" fill="none" stroke="#555" stroke-width="1.5"/>
<line x1="66.0" y1="152.0" x2="200.0" y2="152.0" stroke="#555" stroke-width="1.5"/>
<rect x="200" y="138" width="60" height="28" fill="#ffffff" stroke="#444444" stroke-width="1.5"/>
<text x="230.0" y="156.0" text-anchor="middle" font-family="Consolas, 'Courier New', monospace" font-size="13" font-style="italic" fill="#222222">expr9</text>
<line x1="260.0" y1="152.0" x2="280.0" y2="152.0" stroke="#555" stroke-width="1.5"/>
<polygon points="280,152 275,150 275,154" fill="#555"/>
<rect x="280" y="138" width="30" height="28" rx="5" ry="5" fill="#ddeeff" stroke="#336699" stroke-width="1.5"/>
<text x="295.0" y="156.0" text-anchor="middle" font-family="Consolas, 'Courier New', monospace" font-size="13" fill="#003366">.</text>
<line x1="310.0" y1="152.0" x2="330.0" y2="152.0" stroke="#555" stroke-width="1.5"/>
<polygon points="330,152 325,150 325,154" fill="#555"/>
<rect x="330" y="138" width="36" height="28" rx="5" ry="5" fill="#ddeeff" stroke="#336699" stroke-width="1.5"/>
<text x="348.0" y="156.0" text-anchor="middle" font-family="Consolas, 'Courier New', monospace" font-size="13" fill="#003366">ID</text>
<line x1="366.0" y1="152.0" x2="500.0" y2="152.0" stroke="#555" stroke-width="1.5"/>
<path d="M 500.0 152.0 Q 512.0 152.0 512.0 164.0" fill="none" stroke="#555" stroke-width="1.5"/>
<line x1="512.0" y1="68.0" x2="512.0" y2="164.0" stroke="#555" stroke-width="1.5"/>
<line x1="54.0" y1="68.0" x2="54.0" y2="182.0" stroke="#555" stroke-width="1.5"/>
<path d="M 54.0 182.0 Q 54.0 194.0 66.0 194.0" fill="none" stroke="#555" stroke-width="1.5"/>
<line x1="66.0" y1="194.0" x2="78.0" y2="194.0" stroke="#555" stroke-width="1.5"/>
<rect x="78" y="180" width="60" height="28" fill="#ffffff" stroke="#444444" stroke-width="1.5"/>
<text x="108.0" y="198.0" text-anchor="middle" font-family="Consolas, 'Courier New', monospace" font-size="13" font-style="italic" fill="#222222">expr9</text>
<line x1="138.0" y1="194.0" x2="158.0" y2="194.0" stroke="#555" stroke-width="1.5"/>
<polygon points="158,194 153,192 153,196" fill="#555"/>
<rect x="158" y="180" width="30" height="28" rx="5" ry="5" fill="#ddeeff" stroke="#336699" stroke-width="1.5"/>
<text x="173.0" y="198.0" text-anchor="middle" font-family="Consolas, 'Courier New', monospace" font-size="13" fill="#003366">.</text>
<line x1="188.0" y1="194.0" x2="208.0" y2="194.0" stroke="#555" stroke-width="1.5"/>
<polygon points="208,194 203,192 203,196" fill="#555"/>
<rect x="208" y="180" width="36" height="28" rx="5" ry="5" fill="#ddeeff" stroke="#336699" stroke-width="1.5"/>
<text x="226.0" y="198.0" text-anchor="middle" font-family="Consolas, 'Courier New', monospace" font-size="13" fill="#003366">ID</text>
<line x1="244.0" y1="194.0" x2="264.0" y2="194.0" stroke="#555" stroke-width="1.5"/>
<polygon points="264,194 259,192 259,196" fill="#555"/>
<rect x="264" y="180" width="30" height="28" rx="5" ry="5" fill="#ddeeff" stroke="#336699" stroke-width="1.5"/>
<text x="279.0" y="198.0" text-anchor="middle" font-family="Consolas, 'Courier New', monospace" font-size="13" fill="#003366">(</text>
<line x1="294.0" y1="194.0" x2="314.0" y2="194.0" stroke="#555" stroke-width="1.5"/>
<polygon points="314,194 309,192 309,196" fill="#555"/>
<rect x="314" y="180" width="124" height="28" fill="#ffffff" stroke="#444444" stroke-width="1.5"/>
<text x="376.0" y="198.0" text-anchor="middle" font-family="Consolas, 'Courier New', monospace" font-size="13" font-style="italic" fill="#222222">opt_expr_list</text>
<line x1="438.0" y1="194.0" x2="458.0" y2="194.0" stroke="#555" stroke-width="1.5"/>
<polygon points="458,194 453,192 453,196" fill="#555"/>
<rect x="458" y="180" width="30" height="28" rx="5" ry="5" fill="#ddeeff" stroke="#336699" stroke-width="1.5"/>
<text x="473.0" y="198.0" text-anchor="middle" font-family="Consolas, 'Courier New', monospace" font-size="13" fill="#003366">)</text>
<line x1="488.0" y1="194.0" x2="500.0" y2="194.0" stroke="#555" stroke-width="1.5"/>
<path d="M 500.0 194.0 Q 512.0 194.0 512.0 206.0" fill="none" stroke="#555" stroke-width="1.5"/>
<line x1="512.0" y1="68.0" x2="512.0" y2="206.0" stroke="#555" stroke-width="1.5"/>
<line x1="54.0" y1="68.0" x2="54.0" y2="224.0" stroke="#555" stroke-width="1.5"/>
<path d="M 54.0 224.0 Q 54.0 236.0 66.0 236.0" fill="none" stroke="#555" stroke-width="1.5"/>
<line x1="66.0" y1="236.0" x2="253.0" y2="236.0" stroke="#555" stroke-width="1.5"/>
<rect x="253" y="222" width="60" height="28" fill="#ffffff" stroke="#444444" stroke-width="1.5"/>
<text x="283.0" y="240.0" text-anchor="middle" font-family="Consolas, 'Courier New', monospace" font-size="13" font-style="italic" fill="#222222">group</text>
<line x1="313.0" y1="236.0" x2="500.0" y2="236.0" stroke="#555" stroke-width="1.5"/>
<path d="M 500.0 236.0 Q 512.0 236.0 512.0 248.0" fill="none" stroke="#555" stroke-width="1.5"/>
<line x1="512.0" y1="68.0" x2="512.0" y2="248.0" stroke="#555" stroke-width="1.5"/>
<polygon points="347,68 342,66 342,70" fill="#555"/>
</svg>