<svg xmlns="http://www.w3.org/2000/svg" width="664" height="90" viewBox="0 0 664 90">
<rect width="100%" height="100%" fill="#fafafa" rx="8" ry="8"/>
<text x="30" y="18" font-family="Consolas, 'Courier New', monospace" font-size="14" font-weight="bold" fill="#222">for_header</text>
<line x1="30.0" y1="56.0" x2="54.0" y2="56.0" stroke="#555" stroke-width="1.5"/>
<polygon points="54,56 49,54 49,58" fill="#555"/>
<line x1="610.0" y1="56.0" x2="634.0" y2="56.0" stroke="#555" stroke-width="1.5"/>
<circle cx="30" cy="56" r="5" fill="#555"/>
<circle cx="634" cy="56" r="5" fill="#555" stroke="#555" stroke-width="2"/>
<circle cx="634" cy="56" r="3" fill="#fafafa"/>
<rect x="54" y="42" width="44" height="28" rx="5" ry="5" fill="#ddeeff" stroke="#336699" stroke-width="1.5"/>
<text x="76.0" y="60.0" text-anchor="middle" font-family="Consolas, 'Courier New', monospace" font-size="13" fill="#003366">FOR</text>
<line x1="98.0" y1="56.0" x2="118.0" y2="56.0" stroke="#555" stroke-width="1.5"/>
<polygon points="118,56 113,54 113,58" fill="#555"/>
<rect x="118" y="42" width="30" height="28" rx="5" ry="5" fill="#ddeeff" stroke="#336699" stroke-width="1.5"/>
<text x="133.0" y="60.0" text-anchor="middle" font-family="Consolas, 'Courier New', monospace" font-size="13" fill="#003366">(</text>
<line x1="148.0" y1="56.0" x2="168.0" y2="56.0" stroke="#555" stroke-width="1.5"/>
<polygon points="168,56 163,54 163,58" fill="#555"/>
<rect x="168" y="42" width="84" height="28" fill="#ffffff" stroke="#444444" stroke-width="1.5"/>
<text x="210.0" y="60.0" text-anchor="middle" font-family="Consolas, 'Courier New', monospace" font-size="13" font-style="italic" fill="#222222">opt_expr</text>
<line x1="252.0" y1="56.0" x2="272.0" y2="56.0" stroke="#555" stroke-width="1.5"/>
<polygon points="272,56 267,54 267,58" fill="#555"/>
<rect x="272" y="42" width="30" height="28" rx="5" ry="5" fill="#ddeeff" stroke="#336699" stroke-width="1.5"/>
<text x="287.0" y="60.0" text-anchor="middle" font-family="Consolas, 'Courier New', monospace" font-size="13" fill="#003366">;</text>
<line x1="302.0" y1="56.0" x2="322.0" y2="56.0" stroke="#555" stroke-width="1.5"/>
<polygon points="322,56 317,54 317,58" fill="#555"/>
<rect x="322" y="42" width="84" height="28" fill="#ffffff" stroke="#444444" stroke-width="1.5"/>
<text x="364.0" y="60.0" text-anchor="middle" font-family="Consolas, 'Courier New', monospace" font-size="13" font-style="italic" fill="#222222">opt_expr</text>
<line x1="406.0" y1="56.0" x2="426.0" y2="56.0" stroke="#555" stroke-width="1.5"/>
<polygon points="426,56 421,54 421,58" fill="#555"/>
<rect x="426" y="42" width="30" height="28" rx="5" ry="5" fill="#ddeeff" stroke="#336699" stroke-width="1.5"/>
<text x="441.0" y="60.0" text-anchor="middle" font-family="Consolas, 'Courier New', monospace" font-size="13" fill="#003366">;</text>
<line x1="456.0" y1="56.0" x2="476.0" y2="56.0" stroke="#555" stroke-width="1.5"/>
<polygon points="476,56 471,54 471,58" fill="#555"/>
<rect x="476" y="42" width="84" height="28" fill="#ffffff" stroke="#444444" stroke-width="1.5"/>
<text x="518.0" y="60.0" text-anchor="middle" font-family="Consolas, 'Courier New', monospace" font-size="13" font-style="italic" fill="#222222">opt_expr</text>
<line x1="560.0" y1="56.0" x2="580.0" y2="56.0" stroke="#555" stroke-width="1.5"/>
<polygon points="580,56 575,54 575,58" fill="#555"/>
<rect x="580" y="42" width="30" height="28" rx="5" ry="5" fill="#ddeeff" stroke="#336699" stroke-width="1.5"/>
<text x="595.0" y="60.0" text-anchor="middle" font-family="Consolas, 'Courier New', monospace" font-size="13" fill="#003366">)</text>
</svg>