<svg xmlns="http://www.w3.org/2000/svg" width="500" height="282" viewBox="0 0 500 282">
<rect width="100%" height="100%" fill="#fafafa" rx="8" ry="8"/>
<text x="30" y="18" font-family="Consolas, 'Courier New', monospace" font-size="14" font-weight="bold" fill="#222">group</text>
<line x1="30.0" y1="68.0" x2="54.0" y2="68.0" stroke="#555" stroke-width="1.5"/>
<polygon points="54,68 49,66 49,70" fill="#555"/>
<line x1="446.0" y1="68.0" x2="470.0" y2="68.0" stroke="#555" stroke-width="1.5"/>
<circle cx="30" cy="68" r="5" fill="#555"/>
<circle cx="470" cy="68" r="5" fill="#555" stroke="#555" stroke-width="2"/>
<circle cx="470" cy="68" r="3" fill="#fafafa"/>
<line x1="54.0" y1="68.0" x2="174.0" y2="68.0" stroke="#555" stroke-width="1.5"/>
<rect x="174" y="54" width="30" height="28" rx="5" ry="5" fill="#ddeeff" stroke="#336699" stroke-width="1.5"/>
<text x="189.0" y="72.0" text-anchor="middle" font-family="Consolas, 'Courier New', monospace" font-size="13" fill="#003366">(</text>
<line x1="204.0" y1="68.0" x2="224.0" y2="68.0" stroke="#555" stroke-width="1.5"/>
<polygon points="224,68 219,66 219,70" fill="#555"/>
<rect x="224" y="54" width="52" height="28" fill="#ffffff" stroke="#444444" stroke-width="1.5"/>
<text x="250.0" y="72.0" text-anchor="middle" font-family="Consolas, 'Courier New', monospace" font-size="13" font-style="italic" fill="#222222">expr</text>
<line x1="276.0" y1="68.0" x2="296.0" y2="68.0" stroke="#555" stroke-width="1.5"/>
<polygon points="296,68 291,66 291,70" fill="#555"/>
<rect x="296" y="54" width="30" height="28" rx="5" ry="5" fill="#ddeeff" stroke="#336699" stroke-width="1.5"/>
<text x="311.0" y="72.0" text-anchor="middle" font-family="Consolas, 'Courier New', monospace" font-size="13" fill="#003366">)</text>
<line x1="326.0" y1="68.0" x2="422.0" y2="68.0" stroke="#555" stroke-width="1.5"/>
<line x1="54.0" y1="68.0" x2="54.0" y2="98.0" stroke="#555" stroke-width="1.5"/>
<path d="M 54.0 98.0 Q 54.0 110.0 66.0 110.0" fill="none" stroke="#555" stroke-width="1.5"/>
<line x1="66.0" y1="110.0" x2="110.0" y2="110.0" stroke="#555" stroke-width="1.5"/>
<rect x="110" y="96" width="36" height="28" rx="5" ry="5" fill="#ddeeff" stroke="#336699" stroke-width="1.5"/>
<text x="128.0" y="114.0" text-anchor="middle" font-family="Consolas, 'Courier New', monospace" font-size="13" fill="#003366">ID</text>
<line x1="146.0" y1="110.0" x2="166.0" y2="110.0" stroke="#555" stroke-width="1.5"/>
<polygon points="166,110 161,108 161,112" fill="#555"/>
<rect x="166" y="96" width="30" height="28" rx="5" ry="5" fill="#ddeeff" stroke="#336699" stroke-width="1.5"/>
<text x="181.0" y="114.0" text-anchor="middle" font-family="Consolas, 'Courier New', monospace" font-size="13" fill="#003366">(</text>
<line x1="196.0" y1="110.0" x2="216.0" y2="110.0" stroke="#555" stroke-width="1.5"/>
<polygon points="216,110 211,108 211,112" fill="#555"/>
<rect x="216" y="96" width="124" height="28" fill="#ffffff" stroke="#444444" stroke-width="1.5"/>
<text x="278.0" y="114.0" text-anchor="middle" font-family="Consolas, 'Courier New', monospace" font-size="13" font-style="italic" fill="#222222">opt_expr_list</text>
<line x1="340.0" y1="110.0" x2="360.0" y2="110.0" stroke="#555" stroke-width="1.5"/>
<polygon points="360,110 355,108 355,112" fill="#555"/>
<rect x="360" y="96" width="30" height="28" rx="5" ry="5" fill="#ddeeff" stroke="#336699" stroke-width="1.5"/>
<text x="375.0" y="114.0" text-anchor="middle" font-family="Consolas, 'Courier New', monospace" font-size="13" fill="#003366">)</text>
<line x1="390.0" y1="110.0" x2="434.0" y2="110.0" stroke="#555" stroke-width="1.5"/>
<path d="M 434.0 110.0 Q 446.0 110.0 446.0 122.0" fill="none" stroke="#555" stroke-width="1.5"/>
<line x1="446.0" y1="68.0" x2="446.0" y2="122.0" stroke="#555" stroke-width="1.5"/>
<line x1="54.0" y1="68.0" x2="54.0" y2="140.0" stroke="#555" stroke-width="1.5"/>
<path d="M 54.0 140.0 Q 54.0 152.0 66.0 152.0" fill="none" stroke="#555" stroke-width="1.5"/>
<line x1="66.0" y1="152.0" x2="192.0" y2="152.0" stroke="#555" stroke-width="1.5"/>
<rect x="192" y="138" width="36" height="28" rx="5" ry="5" fill="#ddeeff" stroke="#336699" stroke-width="1.5"/>
<text x="210.0" y="156.0" text-anchor="middle" font-family="Consolas, 'Courier New', monospace" font-size="13" fill="#003366">ID</text>
<line x1="228.0" y1="152.0" x2="248.0" y2="152.0" stroke="#555" stroke-width="1.5"/>
<polygon points="248,152 243,150 243,154" fill="#555"/>
<rect x="248" y="138" width="60" height="28" fill="#ffffff" stroke="#444444" stroke-width="1.5"/>
<text x="278.0" y="156.0" text-anchor="middle" font-family="Consolas, 'Courier New', monospace" font-size="13" font-style="italic" fill="#222222">index</text>
<line x1="308.0" y1="152.0" x2="434.0" y2="152.0" stroke="#555" stroke-width="1.5"/>
<path d="M 434.0 152.0 Q 446.0 152.0 446.0 164.0" fill="none" stroke="#555" stroke-width="1.5"/>
<line x1="446.0" y1="68.0" x2="446.0" y2="164.0" stroke="#555" stroke-width="1.5"/>
<line x1="54.0" y1="68.0" x2="54.0" y2="182.0" stroke="#555" stroke-width="1.5"/>
<path d="M 54.0 182.0 Q 54.0 194.0 66.0 194.0" fill="none" stroke="#555" stroke-width="1.5"/>
<line x1="66.0" y1="194.0" x2="216.0" y2="194.0" stroke="#555" stroke-width="1.5"/>
<rect x="216" y="180" width="68" height="28" fill="#ffffff" stroke="#444444" stroke-width="1.5"/>
<text x="250.0" y="198.0" text-anchor="middle" font-family="Consolas, 'Courier New', monospace" font-size="13" font-style="italic" fill="#222222">factor</text>
<line x1="284.0" y1="194.0" x2="434.0" y2="194.0" stroke="#555" stroke-width="1.5"/>
<path d="M 434.0 194.0 Q 446.0 194.0 446.0 206.0" fill="none" stroke="#555" stroke-width="1.5"/>
<line x1="446.0" y1="68.0" x2="446.0" y2="206.0" stroke="#555" stroke-width="1.5"/>
<line x1="54.0" y1="68.0" x2="54.0" y2="224.0" stroke="#555" stroke-width="1.5"/>
<path d="M 54.0 224.0 Q 54.0 236.0 66.0 236.0" fill="none" stroke="#555" stroke-width="1.5"/>
<line x1="66.0" y1="236.0" x2="78.0" y2="236.0" stroke="#555" stroke-width="1.5"/>
<rect x="78" y="222" width="44" height="28" rx="5" ry="5" fill="#ddeeff" stroke="#336699" stroke-width="1.5"/>
<text x="100.0" y="240.0" text-anchor="middle" font-family="Consolas, 'Courier New', monospace" font-size="13" fill="#003366">NEW</text>
<line x1="122.0" y1="236.0" x2="142.0" y2="236.0" stroke="#555" stroke-width="1.5"/>
<polygon points="142,236 137,234 137,238" fill="#555"/>
<rect x="142" y="222" width="36" height="28" rx="5" ry="5" fill="#ddeeff" stroke="#336699" stroke-width="1.5"/>
<text x="160.0" y="240.0" text-anchor="middle" font-family="Consolas, 'Courier New', monospace" font-size="13" fill="#003366">ID</text>
<line x1="178.0" y1="236.0" x2="198.0" y2="236.0" stroke="#555" stroke-width="1.5"/>
<polygon points="198,236 193,234 193,238" fill="#555"/>
<rect x="198" y="222" width="30" height="28" rx="5" ry="5" fill="#ddeeff" stroke="#336699" stroke-width="1.5"/>
<text x="213.0" y="240.0" text-anchor="middle" font-family="Consolas, 'Courier New', monospace" font-size="13" fill="#003366">(</text>
<line x1="228.0" y1="236.0" x2="248.0" y2="236.0" stroke="#555" stroke-width="1.5"/>
<polygon points="248,236 243,234 243,238" fill="#555"/>
<rect x="248" y="222" width="124" height="28" fill="#ffffff" stroke="#444444" stroke-width="1.5"/>
<text x="310.0" y="240.0" text-anchor="middle" font-family="Consolas, 'Courier New', monospace" font-size="13" font-style="italic" fill="#222222">opt_expr_list</text>
<line x1="372.0" y1="236.0" x2="392.0" y2="236.0" stroke="#555" stroke-width="1.5"/>
<polygon points="392,236 387,234 387,238" fill="#555"/>
<rect x="392" y="222" width="30" height="28" rx="5" ry="5" fill="#ddeeff" stroke="#336699" stroke-width="1.5"/>
<text x="407.0" y="240.0" text-anchor="middle" font-family="Consolas, 'Courier New', monospace" font-size="13" fill="#003366">)</text>
<line x1="422.0" y1="236.0" x2="434.0" y2="236.0" stroke="#555" stroke-width="1.5"/>
<path d="M 434.0 236.0 Q 446.0 236.0 446.0 248.0" fill="none" stroke="#555" stroke-width="1.5"/>
<line x1="446.0" y1="68.0" x2="446.0" y2="248.0" stroke="#555" stroke-width="1.5"/>
<polygon points="328,68 323,66 323,70" fill="#555"/>
</svg>