<svg xmlns="http://www.w3.org/2000/svg" width="348" height="90" viewBox="0 0 348 90">
<rect width="100%" height="100%" fill="#fafafa" rx="8" ry="8"/>
<text x="30" y="18" font-family="Consolas, 'Courier New', monospace" font-size="14" font-weight="bold" fill="#222">if_cond</text>
<line x1="30.0" y1="56.0" x2="54.0" y2="56.0" stroke="#555" stroke-width="1.5"/>
<polygon points="54,56 49,54 49,58" fill="#555"/>
<line x1="294.0" y1="56.0" x2="318.0" y2="56.0" stroke="#555" stroke-width="1.5"/>
<circle cx="30" cy="56" r="5" fill="#555"/>
<circle cx="318" cy="56" r="5" fill="#555" stroke="#555" stroke-width="2"/>
<circle cx="318" cy="56" r="3" fill="#fafafa"/>
<rect x="54" y="42" width="36" height="28" rx="5" ry="5" fill="#ddeeff" stroke="#336699" stroke-width="1.5"/>
<text x="72.0" y="60.0" text-anchor="middle" font-family="Consolas, 'Courier New', monospace" font-size="13" fill="#003366">IF</text>
<line x1="90.0" y1="56.0" x2="110.0" y2="56.0" stroke="#555" stroke-width="1.5"/>
<polygon points="110,56 105,54 105,58" fill="#555"/>
<rect x="110" y="42" width="30" height="28" rx="5" ry="5" fill="#ddeeff" stroke="#336699" stroke-width="1.5"/>
<text x="125.0" y="60.0" text-anchor="middle" font-family="Consolas, 'Courier New', monospace" font-size="13" fill="#003366">(</text>
<line x1="140.0" y1="56.0" x2="160.0" y2="56.0" stroke="#555" stroke-width="1.5"/>
<polygon points="160,56 155,54 155,58" fill="#555"/>
<rect x="160" y="42" width="84" height="28" fill="#ffffff" stroke="#444444" stroke-width="1.5"/>
<text x="202.0" y="60.0" text-anchor="middle" font-family="Consolas, 'Courier New', monospace" font-size="13" font-style="italic" fill="#222222">opt_expr</text>
<line x1="244.0" y1="56.0" x2="264.0" y2="56.0" stroke="#555" stroke-width="1.5"/>
<polygon points="264,56 259,54 259,58" fill="#555"/>
<rect x="264" y="42" width="30" height="28" rx="5" ry="5" fill="#ddeeff" stroke="#336699" stroke-width="1.5"/>
<text x="279.0" y="60.0" text-anchor="middle" font-family="Consolas, 'Courier New', monospace" font-size="13" fill="#003366">)</text>
</svg>