<svg xmlns="http://www.w3.org/2000/svg" width="260" height="90" viewBox="0 0 260 90">
<rect width="100%" height="100%" fill="#fafafa" rx="8" ry="8"/>
<text x="30" y="18" font-family="Consolas, 'Courier New', monospace" font-size="14" font-weight="bold" fill="#222">index</text>
<line x1="30.0" y1="56.0" x2="54.0" y2="56.0" stroke="#555" stroke-width="1.5"/>
<polygon points="54,56 49,54 49,58" fill="#555"/>
<line x1="206.0" y1="56.0" x2="230.0" y2="56.0" stroke="#555" stroke-width="1.5"/>
<circle cx="30" cy="56" r="5" fill="#555"/>
<circle cx="230" cy="56" r="5" fill="#555" stroke="#555" stroke-width="2"/>
<circle cx="230" cy="56" r="3" fill="#fafafa"/>
<rect x="54" y="42" width="30" height="28" rx="5" ry="5" fill="#ddeeff" stroke="#336699" stroke-width="1.5"/>
<text x="69.0" y="60.0" text-anchor="middle" font-family="Consolas, 'Courier New', monospace" font-size="13" fill="#003366">[</text>
<line x1="84.0" y1="56.0" x2="104.0" y2="56.0" stroke="#555" stroke-width="1.5"/>
<polygon points="104,56 99,54 99,58" fill="#555"/>
<rect x="104" y="42" width="52" height="28" fill="#ffffff" stroke="#444444" stroke-width="1.5"/>
<text x="130.0" y="60.0" text-anchor="middle" font-family="Consolas, 'Courier New', monospace" font-size="13" font-style="italic" fill="#222222">expr</text>
<line x1="156.0" y1="56.0" x2="176.0" y2="56.0" stroke="#555" stroke-width="1.5"/>
<polygon points="176,56 171,54 171,58" fill="#555"/>
<rect x="176" y="42" width="30" height="28" rx="5" ry="5" fill="#ddeeff" stroke="#336699" stroke-width="1.5"/>
<text x="191.0" y="60.0" text-anchor="middle" font-family="Consolas, 'Courier New', monospace" font-size="13" fill="#003366">]</text>
</svg>