<svg xmlns="http://www.w3.org/2000/svg" width="296" height="198" viewBox="0 0 296 198">
<rect width="100%" height="100%" fill="#fafafa" rx="8" ry="8"/>
<text x="30" y="18" font-family="Consolas, 'Courier New', monospace" font-size="14" font-weight="bold" fill="#222">open_stmt</text>
<line x1="30.0" y1="68.0" x2="54.0" y2="68.0" stroke="#555" stroke-width="1.5"/>
<polygon points="54,68 49,66 49,70" fill="#555"/>
<line x1="242.0" y1="68.0" x2="266.0" y2="68.0" stroke="#555" stroke-width="1.5"/>
<circle cx="30" cy="68" r="5" fill="#555"/>
<circle cx="266" cy="68" r="5" fill="#555" stroke="#555" stroke-width="2"/>
<circle cx="266" cy="68" r="3" fill="#fafafa"/>
<line x1="54.0" y1="68.0" x2="90.0" y2="68.0" stroke="#555" stroke-width="1.5"/>
<rect x="90" y="54" width="116" height="28" fill="#ffffff" stroke="#444444" stroke-width="1.5"/>
<text x="148.0" y="72.0" text-anchor="middle" font-family="Consolas, 'Courier New', monospace" font-size="13" font-style="italic" fill="#222222">if_stmt_open</text>
<line x1="206.0" y1="68.0" x2="218.0" y2="68.0" stroke="#555" stroke-width="1.5"/>
<line x1="54.0" y1="68.0" x2="54.0" y2="98.0" stroke="#555" stroke-width="1.5"/>
<path d="M 54.0 98.0 Q 54.0 110.0 66.0 110.0" fill="none" stroke="#555" stroke-width="1.5"/>
<line x1="66.0" y1="110.0" x2="86.0" y2="110.0" stroke="#555" stroke-width="1.5"/>
<rect x="86" y="96" width="124" height="28" fill="#ffffff" stroke="#444444" stroke-width="1.5"/>
<text x="148.0" y="114.0" text-anchor="middle" font-family="Consolas, 'Courier New', monospace" font-size="13" font-style="italic" fill="#222222">for_stmt_open</text>
<line x1="210.0" y1="110.0" x2="230.0" y2="110.0" stroke="#555" stroke-width="1.5"/>
<path d="M 230.0 110.0 Q 242.0 110.0 242.0 122.0" fill="none" stroke="#555" stroke-width="1.5"/>
<line x1="242.0" y1="68.0" x2="242.0" y2="122.0" stroke="#555" stroke-width="1.5"/>
<line x1="54.0" y1="68.0" x2="54.0" y2="140.0" stroke="#555" stroke-width="1.5"/>
<path d="M 54.0 140.0 Q 54.0 152.0 66.0 152.0" fill="none" stroke="#555" stroke-width="1.5"/>
<line x1="66.0" y1="152.0" x2="78.0" y2="152.0" stroke="#555" stroke-width="1.5"/>
<rect x="78" y="138" width="140" height="28" fill="#ffffff" stroke="#444444" stroke-width="1.5"/>
<text x="148.0" y="156.0" text-anchor="middle" font-family="Consolas, 'Courier New', monospace" font-size="13" font-style="italic" fill="#222222">while_stmt_open</text>
<line x1="218.0" y1="152.0" x2="230.0" y2="152.0" stroke="#555" stroke-width="1.5"/>
<path d="M 230.0 152.0 Q 242.0 152.0 242.0 164.0" fill="none" stroke="#555" stroke-width="1.5"/>
<line x1="242.0" y1="68.0" x2="242.0" y2="164.0" stroke="#555" stroke-width="1.5"/>
<polygon points="208,68 203,66 203,70" fill="#555"/>
</svg>