<svg xmlns="http://www.w3.org/2000/svg" width="248" height="156" viewBox="0 0 248 156">
<rect width="100%" height="100%" fill="#fafafa" rx="8" ry="8"/>
<text x="30" y="18" font-family="Consolas, 'Courier New', monospace" font-size="14" font-weight="bold" fill="#222">opt_expr_list</text>
<line x1="30.0" y1="68.0" x2="54.0" y2="68.0" stroke="#555" stroke-width="1.5"/>
<polygon points="54,68 49,66 49,70" fill="#555"/>
<line x1="194.0" y1="68.0" x2="218.0" y2="68.0" stroke="#555" stroke-width="1.5"/>
<circle cx="30" cy="68" r="5" fill="#555"/>
<circle cx="218" cy="68" r="5" fill="#555" stroke="#555" stroke-width="2"/>
<circle cx="218" cy="68" r="3" fill="#fafafa"/>
<line x1="54.0" y1="68.0" x2="104.0" y2="68.0" stroke="#555" stroke-width="1.5"/>
<text x="124.0" y="72.0" text-anchor="middle" font-family="Consolas, 'Courier New', monospace" font-size="13" fill="#888">ε</text>
<line x1="104.0" y1="68.0" x2="144.0" y2="68.0" stroke="#555" stroke-width="1.5"/>
<line x1="144.0" y1="68.0" x2="170.0" y2="68.0" stroke="#555" stroke-width="1.5"/>
<line x1="54.0" y1="68.0" x2="54.0" y2="98.0" stroke="#555" stroke-width="1.5"/>
<path d="M 54.0 98.0 Q 54.0 110.0 66.0 110.0" fill="none" stroke="#555" stroke-width="1.5"/>
<line x1="66.0" y1="110.0" x2="78.0" y2="110.0" stroke="#555" stroke-width="1.5"/>
<rect x="78" y="96" width="92" height="28" fill="#ffffff" stroke="#444444" stroke-width="1.5"/>
<text x="124.0" y="114.0" text-anchor="middle" font-family="Consolas, 'Courier New', monospace" font-size="13" font-style="italic" fill="#222222">expr_list</text>
<line x1="170.0" y1="110.0" x2="182.0" y2="110.0" stroke="#555" stroke-width="1.5"/>
<path d="M 182.0 110.0 Q 194.0 110.0 194.0 122.0" fill="none" stroke="#555" stroke-width="1.5"/>
<line x1="194.0" y1="68.0" x2="194.0" y2="122.0" stroke="#555" stroke-width="1.5"/>
<polygon points="146,68 141,66 141,70" fill="#555"/>
</svg>