<svg xmlns="http://www.w3.org/2000/svg" width="410" height="198" viewBox="0 0 410 198">
<rect width="100%" height="100%" fill="#fafafa" rx="8" ry="8"/>
<text x="30" y="18" font-family="Consolas, 'Courier New', monospace" font-size="14" font-weight="bold" fill="#222">param</text>
<line x1="30.0" y1="68.0" x2="54.0" y2="68.0" stroke="#555" stroke-width="1.5"/>
<polygon points="54,68 49,66 49,70" fill="#555"/>
<line x1="356.0" y1="68.0" x2="380.0" y2="68.0" stroke="#555" stroke-width="1.5"/>
<circle cx="30" cy="68" r="5" fill="#555"/>
<circle cx="380" cy="68" r="5" fill="#555" stroke="#555" stroke-width="2"/>
<circle cx="380" cy="68" r="3" fill="#fafafa"/>
<line x1="54.0" y1="68.0" x2="98.0" y2="68.0" stroke="#555" stroke-width="1.5"/>
<rect x="98" y="54" width="36" height="28" rx="5" ry="5" fill="#ddeeff" stroke="#336699" stroke-width="1.5"/>
<text x="116.0" y="72.0" text-anchor="middle" font-family="Consolas, 'Courier New', monospace" font-size="13" fill="#003366">ID</text>
<line x1="134.0" y1="68.0" x2="154.0" y2="68.0" stroke="#555" stroke-width="1.5"/>
<polygon points="154,68 149,66 149,70" fill="#555"/>
<rect x="154" y="54" width="30" height="28" rx="5" ry="5" fill="#ddeeff" stroke="#336699" stroke-width="1.5"/>
<text x="169.0" y="72.0" text-anchor="middle" font-family="Consolas, 'Courier New', monospace" font-size="13" fill="#003366">:</text>
<line x1="184.0" y1="68.0" x2="204.0" y2="68.0" stroke="#555" stroke-width="1.5"/>
<polygon points="204,68 199,66 199,70" fill="#555"/>
<rect x="204" y="54" width="108" height="28" fill="#ffffff" stroke="#444444" stroke-width="1.5"/>
<text x="258.0" y="72.0" text-anchor="middle" font-family="Consolas, 'Courier New', monospace" font-size="13" font-style="italic" fill="#222222">type_simple</text>
<line x1="312.0" y1="68.0" x2="332.0" y2="68.0" stroke="#555" stroke-width="1.5"/>
<line x1="54.0" y1="68.0" x2="54.0" y2="98.0" stroke="#555" stroke-width="1.5"/>
<path d="M 54.0 98.0 Q 54.0 110.0 66.0 110.0" fill="none" stroke="#555" stroke-width="1.5"/>
<line x1="66.0" y1="110.0" x2="102.0" y2="110.0" stroke="#555" stroke-width="1.5"/>
<rect x="102" y="96" width="36" height="28" rx="5" ry="5" fill="#ddeeff" stroke="#336699" stroke-width="1.5"/>
<text x="120.0" y="114.0" text-anchor="middle" font-family="Consolas, 'Courier New', monospace" font-size="13" fill="#003366">ID</text>
<line x1="138.0" y1="110.0" x2="158.0" y2="110.0" stroke="#555" stroke-width="1.5"/>
<polygon points="158,110 153,108 153,112" fill="#555"/>
<rect x="158" y="96" width="30" height="28" rx="5" ry="5" fill="#ddeeff" stroke="#336699" stroke-width="1.5"/>
<text x="173.0" y="114.0" text-anchor="middle" font-family="Consolas, 'Courier New', monospace" font-size="13" fill="#003366">:</text>
<line x1="188.0" y1="110.0" x2="208.0" y2="110.0" stroke="#555" stroke-width="1.5"/>
<polygon points="208,110 203,108 203,112" fill="#555"/>
<rect x="208" y="96" width="100" height="28" fill="#ffffff" stroke="#444444" stroke-width="1.5"/>
<text x="258.0" y="114.0" text-anchor="middle" font-family="Consolas, 'Courier New', monospace" font-size="13" font-style="italic" fill="#222222">type_array</text>
<line x1="308.0" y1="110.0" x2="344.0" y2="110.0" stroke="#555" stroke-width="1.5"/>
<path d="M 344.0 110.0 Q 356.0 110.0 356.0 122.0" fill="none" stroke="#555" stroke-width="1.5"/>
<line x1="356.0" y1="68.0" x2="356.0" y2="122.0" stroke="#555" stroke-width="1.5"/>
<line x1="54.0" y1="68.0" x2="54.0" y2="140.0" stroke="#555" stroke-width="1.5"/>
<path d="M 54.0 140.0 Q 54.0 152.0 66.0 152.0" fill="none" stroke="#555" stroke-width="1.5"/>
<line x1="66.0" y1="152.0" x2="78.0" y2="152.0" stroke="#555" stroke-width="1.5"/>
<rect x="78" y="138" width="36" height="28" rx="5" ry="5" fill="#ddeeff" stroke="#336699" stroke-width="1.5"/>
<text x="96.0" y="156.0" text-anchor="middle" font-family="Consolas, 'Courier New', monospace" font-size="13" fill="#003366">ID</text>
<line x1="114.0" y1="152.0" x2="134.0" y2="152.0" stroke="#555" stroke-width="1.5"/>
<polygon points="134,152 129,150 129,154" fill="#555"/>
<rect x="134" y="138" width="30" height="28" rx="5" ry="5" fill="#ddeeff" stroke="#336699" stroke-width="1.5"/>
<text x="149.0" y="156.0" text-anchor="middle" font-family="Consolas, 'Courier New', monospace" font-size="13" fill="#003366">:</text>
<line x1="164.0" y1="152.0" x2="184.0" y2="152.0" stroke="#555" stroke-width="1.5"/>
<polygon points="184,152 179,150 179,154" fill="#555"/>
<rect x="184" y="138" width="148" height="28" fill="#ffffff" stroke="#444444" stroke-width="1.5"/>
<text x="258.0" y="156.0" text-anchor="middle" font-family="Consolas, 'Courier New', monospace" font-size="13" font-style="italic" fill="#222222">type_array_sized</text>
<line x1="332.0" y1="152.0" x2="344.0" y2="152.0" stroke="#555" stroke-width="1.5"/>
<path d="M 344.0 152.0 Q 356.0 152.0 356.0 164.0" fill="none" stroke="#555" stroke-width="1.5"/>
<line x1="356.0" y1="68.0" x2="356.0" y2="164.0" stroke="#555" stroke-width="1.5"/>
<polygon points="314,68 309,66 309,70" fill="#555"/>
</svg>