<svg xmlns="http://www.w3.org/2000/svg" width="362" height="90" viewBox="0 0 362 90">
<rect width="100%" height="100%" fill="#fafafa" rx="8" ry="8"/>
<text x="30" y="18" font-family="Consolas, 'Courier New', monospace" font-size="14" font-weight="bold" fill="#222">print_stmt</text>
<line x1="30.0" y1="56.0" x2="54.0" y2="56.0" stroke="#555" stroke-width="1.5"/>
<polygon points="54,56 49,54 49,58" fill="#555"/>
<line x1="308.0" y1="56.0" x2="332.0" y2="56.0" stroke="#555" stroke-width="1.5"/>
<circle cx="30" cy="56" r="5" fill="#555"/>
<circle cx="332" cy="56" r="5" fill="#555" stroke="#555" stroke-width="2"/>
<circle cx="332" cy="56" r="3" fill="#fafafa"/>
<rect x="54" y="42" width="60" height="28" rx="5" ry="5" fill="#ddeeff" stroke="#336699" stroke-width="1.5"/>
<text x="84.0" y="60.0" text-anchor="middle" font-family="Consolas, 'Courier New', monospace" font-size="13" fill="#003366">PRINT</text>
<line x1="114.0" y1="56.0" x2="134.0" y2="56.0" stroke="#555" stroke-width="1.5"/>
<polygon points="134,56 129,54 129,58" fill="#555"/>
<rect x="134" y="42" width="124" height="28" fill="#ffffff" stroke="#444444" stroke-width="1.5"/>
<text x="196.0" y="60.0" text-anchor="middle" font-family="Consolas, 'Courier New', monospace" font-size="13" font-style="italic" fill="#222222">opt_expr_list</text>
<line x1="258.0" y1="56.0" x2="278.0" y2="56.0" stroke="#555" stroke-width="1.5"/>
<polygon points="278,56 273,54 273,58" fill="#555"/>
<rect x="278" y="42" width="30" height="28" rx="5" ry="5" fill="#ddeeff" stroke="#336699" stroke-width="1.5"/>
<text x="293.0" y="60.0" text-anchor="middle" font-family="Consolas, 'Courier New', monospace" font-size="13" fill="#003366">;</text>
</svg>