<svg xmlns="http://www.w3.org/2000/svg" width="330" height="90" viewBox="0 0 330 90">
<rect width="100%" height="100%" fill="#fafafa" rx="8" ry="8"/>
<text x="30" y="18" font-family="Consolas, 'Courier New', monospace" font-size="14" font-weight="bold" fill="#222">return_stmt</text>
<line x1="30.0" y1="56.0" x2="54.0" y2="56.0" stroke="#555" stroke-width="1.5"/>
<polygon points="54,56 49,54 49,58" fill="#555"/>
<line x1="276.0" y1="56.0" x2="300.0" y2="56.0" stroke="#555" stroke-width="1.5"/>
<circle cx="30" cy="56" r="5" fill="#555"/>
<circle cx="300" cy="56" r="5" fill="#555" stroke="#555" stroke-width="2"/>
<circle cx="300" cy="56" r="3" fill="#fafafa"/>
<rect x="54" y="42" width="68" height="28" rx="5" ry="5" fill="#ddeeff" stroke="#336699" stroke-width="1.5"/>
<text x="88.0" y="60.0" text-anchor="middle" font-family="Consolas, 'Courier New', monospace" font-size="13" fill="#003366">RETURN</text>
<line x1="122.0" y1="56.0" x2="142.0" y2="56.0" stroke="#555" stroke-width="1.5"/>
<polygon points="142,56 137,54 137,58" fill="#555"/>
<rect x="142" y="42" width="84" height="28" fill="#ffffff" stroke="#444444" stroke-width="1.5"/>
<text x="184.0" y="60.0" text-anchor="middle" font-family="Consolas, 'Courier New', monospace" font-size="13" font-style="italic" fill="#222222">opt_expr</text>
<line x1="226.0" y1="56.0" x2="246.0" y2="56.0" stroke="#555" stroke-width="1.5"/>
<polygon points="246,56 241,54 241,58" fill="#555"/>
<rect x="246" y="42" width="30" height="28" rx="5" ry="5" fill="#ddeeff" stroke="#336699" stroke-width="1.5"/>
<text x="261.0" y="60.0" text-anchor="middle" font-family="Consolas, 'Courier New', monospace" font-size="13" fill="#003366">;</text>
</svg>