<svg xmlns="http://www.w3.org/2000/svg" width="264" height="282" viewBox="0 0 264 282">
<rect width="100%" height="100%" fill="#fafafa" rx="8" ry="8"/>
<text x="30" y="18" font-family="Consolas, 'Courier New', monospace" font-size="14" font-weight="bold" fill="#222">simple_stmt</text>
<line x1="30.0" y1="68.0" x2="54.0" y2="68.0" stroke="#555" stroke-width="1.5"/>
<polygon points="54,68 49,66 49,70" fill="#555"/>
<line x1="210.0" y1="68.0" x2="234.0" y2="68.0" stroke="#555" stroke-width="1.5"/>
<circle cx="30" cy="68" r="5" fill="#555"/>
<circle cx="234" cy="68" r="5" fill="#555" stroke="#555" stroke-width="2"/>
<circle cx="234" cy="68" r="3" fill="#fafafa"/>
<line x1="54.0" y1="68.0" x2="82.0" y2="68.0" stroke="#555" stroke-width="1.5"/>
<rect x="82" y="54" width="100" height="28" fill="#ffffff" stroke="#444444" stroke-width="1.5"/>
<text x="132.0" y="72.0" text-anchor="middle" font-family="Consolas, 'Courier New', monospace" font-size="13" font-style="italic" fill="#222222">print_stmt</text>
<line x1="182.0" y1="68.0" x2="186.0" y2="68.0" stroke="#555" stroke-width="1.5"/>
<line x1="54.0" y1="68.0" x2="54.0" y2="98.0" stroke="#555" stroke-width="1.5"/>
<path d="M 54.0 98.0 Q 54.0 110.0 66.0 110.0" fill="none" stroke="#555" stroke-width="1.5"/>
<line x1="66.0" y1="110.0" x2="78.0" y2="110.0" stroke="#555" stroke-width="1.5"/>
<rect x="78" y="96" width="108" height="28" fill="#ffffff" stroke="#444444" stroke-width="1.5"/>
<text x="132.0" y="114.0" text-anchor="middle" font-family="Consolas, 'Courier New', monospace" font-size="13" font-style="italic" fill="#222222">return_stmt</text>
<line x1="186.0" y1="110.0" x2="198.0" y2="110.0" stroke="#555" stroke-width="1.5"/>
<path d="M 198.0 110.0 Q 210.0 110.0 210.0 122.0" fill="none" stroke="#555" stroke-width="1.5"/>
<line x1="210.0" y1="68.0" x2="210.0" y2="122.0" stroke="#555" stroke-width="1.5"/>
<line x1="54.0" y1="68.0" x2="54.0" y2="140.0" stroke="#555" stroke-width="1.5"/>
<path d="M 54.0 140.0 Q 54.0 152.0 66.0 152.0" fill="none" stroke="#555" stroke-width="1.5"/>
<line x1="66.0" y1="152.0" x2="82.0" y2="152.0" stroke="#555" stroke-width="1.5"/>
<rect x="82" y="138" width="100" height="28" fill="#ffffff" stroke="#444444" stroke-width="1.5"/>
<text x="132.0" y="156.0" text-anchor="middle" font-family="Consolas, 'Courier New', monospace" font-size="13" font-style="italic" fill="#222222">block_stmt</text>
<line x1="182.0" y1="152.0" x2="198.0" y2="152.0" stroke="#555" stroke-width="1.5"/>
<path d="M 198.0 152.0 Q 210.0 152.0 210.0 164.0" fill="none" stroke="#555" stroke-width="1.5"/>
<line x1="210.0" y1="68.0" x2="210.0" y2="164.0" stroke="#555" stroke-width="1.5"/>
<line x1="54.0" y1="68.0" x2="54.0" y2="182.0" stroke="#555" stroke-width="1.5"/>
<path d="M 54.0 182.0 Q 54.0 194.0 66.0 194.0" fill="none" stroke="#555" stroke-width="1.5"/>
<line x1="66.0" y1="194.0" x2="106.0" y2="194.0" stroke="#555" stroke-width="1.5"/>
<rect x="106" y="180" width="52" height="28" fill="#ffffff" stroke="#444444" stroke-width="1.5"/>
<text x="132.0" y="198.0" text-anchor="middle" font-family="Consolas, 'Courier New', monospace" font-size="13" font-style="italic" fill="#222222">decl</text>
<line x1="158.0" y1="194.0" x2="198.0" y2="194.0" stroke="#555" stroke-width="1.5"/>
<path d="M 198.0 194.0 Q 210.0 194.0 210.0 206.0" fill="none" stroke="#555" stroke-width="1.5"/>
<line x1="210.0" y1="68.0" x2="210.0" y2="206.0" stroke="#555" stroke-width="1.5"/>
<line x1="54.0" y1="68.0" x2="54.0" y2="224.0" stroke="#555" stroke-width="1.5"/>
<path d="M 54.0 224.0 Q 54.0 236.0 66.0 236.0" fill="none" stroke="#555" stroke-width="1.5"/>
<line x1="66.0" y1="236.0" x2="81.0" y2="236.0" stroke="#555" stroke-width="1.5"/>
<rect x="81" y="222" width="52" height="28" fill="#ffffff" stroke="#444444" stroke-width="1.5"/>
<text x="107.0" y="240.0" text-anchor="middle" font-family="Consolas, 'Courier New', monospace" font-size="13" font-style="italic" fill="#222222">expr</text>
<line x1="133.0" y1="236.0" x2="153.0" y2="236.0" stroke="#555" stroke-width="1.5"/>
<polygon points="153,236 148,234 148,238" fill="#555"/>
<rect x="153" y="222" width="30" height="28" rx="5" ry="5" fill="#ddeeff" stroke="#336699" stroke-width="1.5"/>
<text x="168.0" y="240.0" text-anchor="middle" font-family="Consolas, 'Courier New', monospace" font-size="13" fill="#003366">;</text>
<line x1="183.0" y1="236.0" x2="198.0" y2="236.0" stroke="#555" stroke-width="1.5"/>
<path d="M 198.0 236.0 Q 210.0 236.0 210.0 248.0" fill="none" stroke="#555" stroke-width="1.5"/>
<line x1="210.0" y1="68.0" x2="210.0" y2="248.0" stroke="#555" stroke-width="1.5"/>
<polygon points="184,68 179,66 179,70" fill="#555"/>
</svg>