<svg xmlns="http://www.w3.org/2000/svg" width="232" height="366" viewBox="0 0 232 366">
<rect width="100%" height="100%" fill="#fafafa" rx="8" ry="8"/>
<text x="30" y="18" font-family="Consolas, 'Courier New', monospace" font-size="14" font-weight="bold" fill="#222">type_simple</text>
<line x1="30.0" y1="68.0" x2="54.0" y2="68.0" stroke="#555" stroke-width="1.5"/>
<polygon points="54,68 49,66 49,70" fill="#555"/>
<line x1="178.0" y1="68.0" x2="202.0" y2="68.0" stroke="#555" stroke-width="1.5"/>
<circle cx="30" cy="68" r="5" fill="#555"/>
<circle cx="202" cy="68" r="5" fill="#555" stroke="#555" stroke-width="2"/>
<circle cx="202" cy="68" r="3" fill="#fafafa"/>
<line x1="54.0" y1="68.0" x2="78.0" y2="68.0" stroke="#555" stroke-width="1.5"/>
<rect x="78" y="54" width="76" height="28" rx="5" ry="5" fill="#ddeeff" stroke="#336699" stroke-width="1.5"/>
<text x="116.0" y="72.0" text-anchor="middle" font-family="Consolas, 'Courier New', monospace" font-size="13" fill="#003366">INTEGER</text>
<line x1="54.0" y1="68.0" x2="54.0" y2="98.0" stroke="#555" stroke-width="1.5"/>
<path d="M 54.0 98.0 Q 54.0 110.0 66.0 110.0" fill="none" stroke="#555" stroke-width="1.5"/>
<line x1="66.0" y1="110.0" x2="86.0" y2="110.0" stroke="#555" stroke-width="1.5"/>
<rect x="86" y="96" width="60" height="28" rx="5" ry="5" fill="#ddeeff" stroke="#336699" stroke-width="1.5"/>
<text x="116.0" y="114.0" text-anchor="middle" font-family="Consolas, 'Courier New', monospace" font-size="13" fill="#003366">FLOAT</text>
<line x1="146.0" y1="110.0" x2="166.0" y2="110.0" stroke="#555" stroke-width="1.5"/>
<path d="M 166.0 110.0 Q 178.0 110.0 178.0 122.0" fill="none" stroke="#555" stroke-width="1.5"/>
<line x1="178.0" y1="68.0" x2="178.0" y2="122.0" stroke="#555" stroke-width="1.5"/>
<line x1="54.0" y1="68.0" x2="54.0" y2="140.0" stroke="#555" stroke-width="1.5"/>
<path d="M 54.0 140.0 Q 54.0 152.0 66.0 152.0" fill="none" stroke="#555" stroke-width="1.5"/>
<line x1="66.0" y1="152.0" x2="78.0" y2="152.0" stroke="#555" stroke-width="1.5"/>
<rect x="78" y="138" width="76" height="28" rx="5" ry="5" fill="#ddeeff" stroke="#336699" stroke-width="1.5"/>
<text x="116.0" y="156.0" text-anchor="middle" font-family="Consolas, 'Courier New', monospace" font-size="13" fill="#003366">BOOLEAN</text>
<line x1="154.0" y1="152.0" x2="166.0" y2="152.0" stroke="#555" stroke-width="1.5"/>
<path d="M 166.0 152.0 Q 178.0 152.0 178.0 164.0" fill="none" stroke="#555" stroke-width="1.5"/>
<line x1="178.0" y1="68.0" x2="178.0" y2="164.0" stroke="#555" stroke-width="1.5"/>
<line x1="54.0" y1="68.0" x2="54.0" y2="182.0" stroke="#555" stroke-width="1.5"/>
<path d="M 54.0 182.0 Q 54.0 194.0 66.0 194.0" fill="none" stroke="#555" stroke-width="1.5"/>
<line x1="66.0" y1="194.0" x2="90.0" y2="194.0" stroke="#555" stroke-width="1.5"/>
<rect x="90" y="180" width="52" height="28" rx="5" ry="5" fill="#ddeeff" stroke="#336699" stroke-width="1.5"/>
<text x="116.0" y="198.0" text-anchor="middle" font-family="Consolas, 'Courier New', monospace" font-size="13" fill="#003366">CHAR</text>
<line x1="142.0" y1="194.0" x2="166.0" y2="194.0" stroke="#555" stroke-width="1.5"/>
<path d="M 166.0 194.0 Q 178.0 194.0 178.0 206.0" fill="none" stroke="#555" stroke-width="1.5"/>
<line x1="178.0" y1="68.0" x2="178.0" y2="206.0" stroke="#555" stroke-width="1.5"/>
<line x1="54.0" y1="68.0" x2="54.0" y2="224.0" stroke="#555" stroke-width="1.5"/>
<path d="M 54.0 224.0 Q 54.0 236.0 66.0 236.0" fill="none" stroke="#555" stroke-width="1.5"/>
<line x1="66.0" y1="236.0" x2="82.0" y2="236.0" stroke="#555" stroke-width="1.5"/>
<rect x="82" y="222" width="68" height="28" rx="5" ry="5" fill="#ddeeff" stroke="#336699" stroke-width="1.5"/>
<text x="116.0" y="240.0" text-anchor="middle" font-family="Consolas, 'Courier New', monospace" font-size="13" fill="#003366">STRING</text>
<line x1="150.0" y1="236.0" x2="166.0" y2="236.0" stroke="#555" stroke-width="1.5"/>
<path d="M 166.0 236.0 Q 178.0 236.0 178.0 248.0" fill="none" stroke="#555" stroke-width="1.5"/>
<line x1="178.0" y1="68.0" x2="178.0" y2="248.0" stroke="#555" stroke-width="1.5"/>
<line x1="54.0" y1="68.0" x2="54.0" y2="266.0" stroke="#555" stroke-width="1.5"/>
<path d="M 54.0 266.0 Q 54.0 278.0 66.0 278.0" fill="none" stroke="#555" stroke-width="1.5"/>
<line x1="66.0" y1="278.0" x2="90.0" y2="278.0" stroke="#555" stroke-width="1.5"/>
<rect x="90" y="264" width="52" height="28" rx="5" ry="5" fill="#ddeeff" stroke="#336699" stroke-width="1.5"/>
<text x="116.0" y="282.0" text-anchor="middle" font-family="Consolas, 'Courier New', monospace" font-size="13" fill="#003366">VOID</text>
<line x1="142.0" y1="278.0" x2="166.0" y2="278.0" stroke="#555" stroke-width="1.5"/>
<path d="M 166.0 278.0 Q 178.0 278.0 178.0 290.0" fill="none" stroke="#555" stroke-width="1.5"/>
<line x1="178.0" y1="68.0" x2="178.0" y2="290.0" stroke="#555" stroke-width="1.5"/>
<line x1="54.0" y1="68.0" x2="54.0" y2="308.0" stroke="#555" stroke-width="1.5"/>
<path d="M 54.0 308.0 Q 54.0 320.0 66.0 320.0" fill="none" stroke="#555" stroke-width="1.5"/>
<line x1="66.0" y1="320.0" x2="98.0" y2="320.0" stroke="#555" stroke-width="1.5"/>
<rect x="98" y="306" width="36" height="28" rx="5" ry="5" fill="#ddeeff" stroke="#336699" stroke-width="1.5"/>
<text x="116.0" y="324.0" text-anchor="middle" font-family="Consolas, 'Courier New', monospace" font-size="13" fill="#003366">ID</text>
<line x1="134.0" y1="320.0" x2="166.0" y2="320.0" stroke="#555" stroke-width="1.5"/>
<path d="M 166.0 320.0 Q 178.0 320.0 178.0 332.0" fill="none" stroke="#555" stroke-width="1.5"/>
<line x1="178.0" y1="68.0" x2="178.0" y2="332.0" stroke="#555" stroke-width="1.5"/>
<polygon points="156,68 151,66 151,70" fill="#555"/>
</svg>