<svg xmlns="http://www.w3.org/2000/svg" width="444" height="156" viewBox="0 0 444 156">
<rect width="100%" height="100%" fill="#fafafa" rx="8" ry="8"/>
<text x="30" y="18" font-family="Consolas, 'Courier New', monospace" font-size="14" font-weight="bold" fill="#222">type_array</text>
<line x1="30.0" y1="68.0" x2="54.0" y2="68.0" stroke="#555" stroke-width="1.5"/>
<polygon points="54,68 49,66 49,70" fill="#555"/>
<line x1="390.0" y1="68.0" x2="414.0" y2="68.0" stroke="#555" stroke-width="1.5"/>
<circle cx="30" cy="68" r="5" fill="#555"/>
<circle cx="414" cy="68" r="5" fill="#555" stroke="#555" stroke-width="2"/>
<circle cx="414" cy="68" r="3" fill="#fafafa"/>
<line x1="54.0" y1="68.0" x2="78.0" y2="68.0" stroke="#555" stroke-width="1.5"/>
<rect x="78" y="54" width="60" height="28" rx="5" ry="5" fill="#ddeeff" stroke="#336699" stroke-width="1.5"/>
<text x="108.0" y="72.0" text-anchor="middle" font-family="Consolas, 'Courier New', monospace" font-size="13" fill="#003366">ARRAY</text>
<line x1="138.0" y1="68.0" x2="158.0" y2="68.0" stroke="#555" stroke-width="1.5"/>
<polygon points="158,68 153,66 153,70" fill="#555"/>
<rect x="158" y="54" width="30" height="28" rx="5" ry="5" fill="#ddeeff" stroke="#336699" stroke-width="1.5"/>
<text x="173.0" y="72.0" text-anchor="middle" font-family="Consolas, 'Courier New', monospace" font-size="13" fill="#003366">[</text>
<line x1="188.0" y1="68.0" x2="208.0" y2="68.0" stroke="#555" stroke-width="1.5"/>
<polygon points="208,68 203,66 203,70" fill="#555"/>
<rect x="208" y="54" width="30" height="28" rx="5" ry="5" fill="#ddeeff" stroke="#336699" stroke-width="1.5"/>
<text x="223.0" y="72.0" text-anchor="middle" font-family="Consolas, 'Courier New', monospace" font-size="13" fill="#003366">]</text>
<line x1="238.0" y1="68.0" x2="258.0" y2="68.0" stroke="#555" stroke-width="1.5"/>
<polygon points="258,68 253,66 253,70" fill="#555"/>
<rect x="258" y="54" width="108" height="28" fill="#ffffff" stroke="#444444" stroke-width="1.5"/>
<text x="312.0" y="72.0" text-anchor="middle" font-family="Consolas, 'Courier New', monospace" font-size="13" font-style="italic" fill="#222222">type_simple</text>
<line x1="54.0" y1="68.0" x2="54.0" y2="98.0" stroke="#555" stroke-width="1.5"/>
<path d="M 54.0 98.0 Q 54.0 110.0 66.0 110.0" fill="none" stroke="#555" stroke-width="1.5"/>
<line x1="66.0" y1="110.0" x2="82.0" y2="110.0" stroke="#555" stroke-width="1.5"/>
<rect x="82" y="96" width="60" height="28" rx="5" ry="5" fill="#ddeeff" stroke="#336699" stroke-width="1.5"/>
<text x="112.0" y="114.0" text-anchor="middle" font-family="Consolas, 'Courier New', monospace" font-size="13" fill="#003366">ARRAY</text>
<line x1="142.0" y1="110.0" x2="162.0" y2="110.0" stroke="#555" stroke-width="1.5"/>
<polygon points="162,110 157,108 157,112" fill="#555"/>
<rect x="162" y="96" width="30" height="28" rx="5" ry="5" fill="#ddeeff" stroke="#336699" stroke-width="1.5"/>
<text x="177.0" y="114.0" text-anchor="middle" font-family="Consolas, 'Courier New', monospace" font-size="13" fill="#003366">[</text>
<line x1="192.0" y1="110.0" x2="212.0" y2="110.0" stroke="#555" stroke-width="1.5"/>
<polygon points="212,110 207,108 207,112" fill="#555"/>
<rect x="212" y="96" width="30" height="28" rx="5" ry="5" fill="#ddeeff" stroke="#336699" stroke-width="1.5"/>
<text x="227.0" y="114.0" text-anchor="middle" font-family="Consolas, 'Courier New', monospace" font-size="13" fill="#003366">]</text>
<line x1="242.0" y1="110.0" x2="262.0" y2="110.0" stroke="#555" stroke-width="1.5"/>
<polygon points="262,110 257,108 257,112" fill="#555"/>
<rect x="262" y="96" width="100" height="28" fill="#ffffff" stroke="#444444" stroke-width="1.5"/>
<text x="312.0" y="114.0" text-anchor="middle" font-family="Consolas, 'Courier New', monospace" font-size="13" font-style="italic" fill="#222222">type_array</text>
<line x1="362.0" y1="110.0" x2="378.0" y2="110.0" stroke="#555" stroke-width="1.5"/>
<path d="M 378.0 110.0 Q 390.0 110.0 390.0 122.0" fill="none" stroke="#555" stroke-width="1.5"/>
<line x1="390.0" y1="68.0" x2="390.0" y2="122.0" stroke="#555" stroke-width="1.5"/>
<polygon points="368,68 363,66 363,70" fill="#555"/>
</svg>