<svg xmlns="http://www.w3.org/2000/svg" width="464" height="156" viewBox="0 0 464 156">
<rect width="100%" height="100%" fill="#fafafa" rx="8" ry="8"/>
<text x="30" y="18" font-family="Consolas, 'Courier New', monospace" font-size="14" font-weight="bold" fill="#222">type_array_sized</text>
<line x1="30.0" y1="68.0" x2="54.0" y2="68.0" stroke="#555" stroke-width="1.5"/>
<polygon points="54,68 49,66 49,70" fill="#555"/>
<line x1="410.0" y1="68.0" x2="434.0" y2="68.0" stroke="#555" stroke-width="1.5"/>
<circle cx="30" cy="68" r="5" fill="#555"/>
<circle cx="434" cy="68" r="5" fill="#555" stroke="#555" stroke-width="2"/>
<circle cx="434" cy="68" r="3" fill="#fafafa"/>
<line x1="54.0" y1="68.0" x2="98.0" y2="68.0" stroke="#555" stroke-width="1.5"/>
<rect x="98" y="54" width="60" height="28" rx="5" ry="5" fill="#ddeeff" stroke="#336699" stroke-width="1.5"/>
<text x="128.0" y="72.0" text-anchor="middle" font-family="Consolas, 'Courier New', monospace" font-size="13" fill="#003366">ARRAY</text>
<line x1="158.0" y1="68.0" x2="178.0" y2="68.0" stroke="#555" stroke-width="1.5"/>
<polygon points="178,68 173,66 173,70" fill="#555"/>
<rect x="178" y="54" width="60" height="28" fill="#ffffff" stroke="#444444" stroke-width="1.5"/>
<text x="208.0" y="72.0" text-anchor="middle" font-family="Consolas, 'Courier New', monospace" font-size="13" font-style="italic" fill="#222222">index</text>
<line x1="238.0" y1="68.0" x2="258.0" y2="68.0" stroke="#555" stroke-width="1.5"/>
<polygon points="258,68 253,66 253,70" fill="#555"/>
<rect x="258" y="54" width="108" height="28" fill="#ffffff" stroke="#444444" stroke-width="1.5"/>
<text x="312.0" y="72.0" text-anchor="middle" font-family="Consolas, 'Courier New', monospace" font-size="13" font-style="italic" fill="#222222">type_simple</text>
<line x1="366.0" y1="68.0" x2="386.0" y2="68.0" stroke="#555" stroke-width="1.5"/>
<line x1="54.0" y1="68.0" x2="54.0" y2="98.0" stroke="#555" stroke-width="1.5"/>
<path d="M 54.0 98.0 Q 54.0 110.0 66.0 110.0" fill="none" stroke="#555" stroke-width="1.5"/>
<line x1="66.0" y1="110.0" x2="78.0" y2="110.0" stroke="#555" stroke-width="1.5"/>
<rect x="78" y="96" width="60" height="28" rx="5" ry="5" fill="#ddeeff" stroke="#336699" stroke-width="1.5"/>
<text x="108.0" y="114.0" text-anchor="middle" font-family="Consolas, 'Courier New', monospace" font-size="13" fill="#003366">ARRAY</text>
<line x1="138.0" y1="110.0" x2="158.0" y2="110.0" stroke="#555" stroke-width="1.5"/>
<polygon points="158,110 153,108 153,112" fill="#555"/>
<rect x="158" y="96" width="60" height="28" fill="#ffffff" stroke="#444444" stroke-width="1.5"/>
<text x="188.0" y="114.0" text-anchor="middle" font-family="Consolas, 'Courier New', monospace" font-size="13" font-style="italic" fill="#222222">index</text>
<line x1="218.0" y1="110.0" x2="238.0" y2="110.0" stroke="#555" stroke-width="1.5"/>
<polygon points="238,110 233,108 233,112" fill="#555"/>
<rect x="238" y="96" width="148" height="28" fill="#ffffff" stroke="#444444" stroke-width="1.5"/>
<text x="312.0" y="114.0" text-anchor="middle" font-family="Consolas, 'Courier New', monospace" font-size="13" font-style="italic" fill="#222222">type_array_sized</text>
<line x1="386.0" y1="110.0" x2="398.0" y2="110.0" stroke="#555" stroke-width="1.5"/>
<path d="M 398.0 110.0 Q 410.0 110.0 410.0 122.0" fill="none" stroke="#555" stroke-width="1.5"/>
<line x1="410.0" y1="68.0" x2="410.0" y2="122.0" stroke="#555" stroke-width="1.5"/>
<polygon points="368,68 363,66 363,70" fill="#555"/>
</svg>