<svg xmlns="http://www.w3.org/2000/svg" width="660" height="156" viewBox="0 0 660 156">
<rect width="100%" height="100%" fill="#fafafa" rx="8" ry="8"/>
<text x="30" y="18" font-family="Consolas, 'Courier New', monospace" font-size="14" font-weight="bold" fill="#222">type_func</text>
<line x1="30.0" y1="68.0" x2="54.0" y2="68.0" stroke="#555" stroke-width="1.5"/>
<polygon points="54,68 49,66 49,70" fill="#555"/>
<line x1="606.0" y1="68.0" x2="630.0" y2="68.0" stroke="#555" stroke-width="1.5"/>
<circle cx="30" cy="68" r="5" fill="#555"/>
<circle cx="630" cy="68" r="5" fill="#555" stroke="#555" stroke-width="2"/>
<circle cx="630" cy="68" r="3" fill="#fafafa"/>
<line x1="54.0" y1="68.0" x2="98.0" y2="68.0" stroke="#555" stroke-width="1.5"/>
<rect x="98" y="54" width="84" height="28" rx="5" ry="5" fill="#ddeeff" stroke="#336699" stroke-width="1.5"/>
<text x="140.0" y="72.0" text-anchor="middle" font-family="Consolas, 'Courier New', monospace" font-size="13" fill="#003366">FUNCTION</text>
<line x1="182.0" y1="68.0" x2="202.0" y2="68.0" stroke="#555" stroke-width="1.5"/>
<polygon points="202,68 197,66 197,70" fill="#555"/>
<rect x="202" y="54" width="108" height="28" fill="#ffffff" stroke="#444444" stroke-width="1.5"/>
<text x="256.0" y="72.0" text-anchor="middle" font-family="Consolas, 'Courier New', monospace" font-size="13" font-style="italic" fill="#222222">type_simple</text>
<line x1="310.0" y1="68.0" x2="330.0" y2="68.0" stroke="#555" stroke-width="1.5"/>
<polygon points="330,68 325,66 325,70" fill="#555"/>
<rect x="330" y="54" width="30" height="28" rx="5" ry="5" fill="#ddeeff" stroke="#336699" stroke-width="1.5"/>
<text x="345.0" y="72.0" text-anchor="middle" font-family="Consolas, 'Courier New', monospace" font-size="13" fill="#003366">(</text>
<line x1="360.0" y1="68.0" x2="380.0" y2="68.0" stroke="#555" stroke-width="1.5"/>
<polygon points="380,68 375,66 375,70" fill="#555"/>
<rect x="380" y="54" width="132" height="28" fill="#ffffff" stroke="#444444" stroke-width="1.5"/>
<text x="446.0" y="72.0" text-anchor="middle" font-family="Consolas, 'Courier New', monospace" font-size="13" font-style="italic" fill="#222222">opt_param_list</text>
<line x1="512.0" y1="68.0" x2="532.0" y2="68.0" stroke="#555" stroke-width="1.5"/>
<polygon points="532,68 527,66 527,70" fill="#555"/>
<rect x="532" y="54" width="30" height="28" rx="5" ry="5" fill="#ddeeff" stroke="#336699" stroke-width="1.5"/>
<text x="547.0" y="72.0" text-anchor="middle" font-family="Consolas, 'Courier New', monospace" font-size="13" fill="#003366">)</text>
<line x1="562.0" y1="68.0" x2="582.0" y2="68.0" stroke="#555" stroke-width="1.5"/>
<line x1="54.0" y1="68.0" x2="54.0" y2="98.0" stroke="#555" stroke-width="1.5"/>
<path d="M 54.0 98.0 Q 54.0 110.0 66.0 110.0" fill="none" stroke="#555" stroke-width="1.5"/>
<line x1="66.0" y1="110.0" x2="78.0" y2="110.0" stroke="#555" stroke-width="1.5"/>
<rect x="78" y="96" width="84" height="28" rx="5" ry="5" fill="#ddeeff" stroke="#336699" stroke-width="1.5"/>
<text x="120.0" y="114.0" text-anchor="middle" font-family="Consolas, 'Courier New', monospace" font-size="13" fill="#003366">FUNCTION</text>
<line x1="162.0" y1="110.0" x2="182.0" y2="110.0" stroke="#555" stroke-width="1.5"/>
<polygon points="182,110 177,108 177,112" fill="#555"/>
<rect x="182" y="96" width="148" height="28" fill="#ffffff" stroke="#444444" stroke-width="1.5"/>
<text x="256.0" y="114.0" text-anchor="middle" font-family="Consolas, 'Courier New', monospace" font-size="13" font-style="italic" fill="#222222">type_array_sized</text>
<line x1="330.0" y1="110.0" x2="350.0" y2="110.0" stroke="#555" stroke-width="1.5"/>
<polygon points="350,110 345,108 345,112" fill="#555"/>
<rect x="350" y="96" width="30" height="28" rx="5" ry="5" fill="#ddeeff" stroke="#336699" stroke-width="1.5"/>
<text x="365.0" y="114.0" text-anchor="middle" font-family="Consolas, 'Courier New', monospace" font-size="13" fill="#003366">(</text>
<line x1="380.0" y1="110.0" x2="400.0" y2="110.0" stroke="#555" stroke-width="1.5"/>
<polygon points="400,110 395,108 395,112" fill="#555"/>
<rect x="400" y="96" width="132" height="28" fill="#ffffff" stroke="#444444" stroke-width="1.5"/>
<text x="466.0" y="114.0" text-anchor="middle" font-family="Consolas, 'Courier New', monospace" font-size="13" font-style="italic" fill="#222222">opt_param_list</text>
<line x1="532.0" y1="110.0" x2="552.0" y2="110.0" stroke="#555" stroke-width="1.5"/>
<polygon points="552,110 547,108 547,112" fill="#555"/>
<rect x="552" y="96" width="30" height="28" rx="5" ry="5" fill="#ddeeff" stroke="#336699" stroke-width="1.5"/>
<text x="567.0" y="114.0" text-anchor="middle" font-family="Consolas, 'Courier New', monospace" font-size="13" fill="#003366">)</text>
<line x1="582.0" y1="110.0" x2="594.0" y2="110.0" stroke="#555" stroke-width="1.5"/>
<path d="M 594.0 110.0 Q 606.0 110.0 606.0 122.0" fill="none" stroke="#555" stroke-width="1.5"/>
<line x1="606.0" y1="68.0" x2="606.0" y2="122.0" stroke="#555" stroke-width="1.5"/>
<polygon points="564,68 559,66 559,70" fill="#555"/>
</svg>